<svg width="24" height="24" viewBox="0 0 24 24" fill="none" xmlns="http://www.w3.org/2000/svg">
<path d="M22 5.93161C21.3023 6.286 20.4884 6.52226 19.6744 6.64039C20.5465 6.1088 21.186 5.28188 21.5349 4.27777C20.7209 4.75029 19.8488 5.10469 18.9186 5.28188C17.619 3.92963 15.5969 3.61093 13.9551 4.49959C12.3133 5.38825 11.4458 7.27104 11.8256 9.12115C8.56977 8.94395 5.43023 7.40824 3.39535 4.75029C2.8361 5.65776 2.65663 6.7545 2.89678 7.79698C3.13694 8.83946 3.77686 9.74138 4.67442 10.3025C4.03488 10.3025 3.39535 10.1843 2.81395 9.889C2.87209 11.8382 4.2093 13.5511 6.06977 13.9645C5.48837 14.1417 4.84884 14.1417 4.2093 14.0236C4.7907 15.7365 6.36047 16.9178 8.10465 16.9769C6.4186 18.3944 4.15116 19.0442 2 18.6898C5.66722 21.1758 10.4065 21.3285 14.2213 19.0834C18.0362 16.8383 20.2635 12.5857 19.9651 8.11703C20.7791 7.52638 21.4767 6.81759 22 5.93161Z" fill="#1DA1F3"/>
</svg>
