<svg width="1068" height="264" viewBox="0 0 1068 264" fill="none" xmlns="http://www.w3.org/2000/svg">
<path d="M122.031 252.077C121.525 252.077 121.07 251.989 120.667 251.813C120.271 251.63 119.959 251.38 119.732 251.065C119.505 250.742 119.387 250.372 119.38 249.954H120.447C120.484 250.313 120.63 250.618 120.887 250.867C121.151 251.109 121.532 251.23 122.031 251.23C122.508 251.23 122.882 251.113 123.153 250.878C123.432 250.636 123.571 250.328 123.571 249.954C123.571 249.661 123.49 249.422 123.329 249.239C123.168 249.056 122.966 248.916 122.724 248.821C122.482 248.726 122.156 248.623 121.745 248.513C121.239 248.381 120.832 248.249 120.524 248.117C120.223 247.985 119.963 247.78 119.743 247.501C119.53 247.215 119.424 246.834 119.424 246.357C119.424 245.939 119.53 245.569 119.743 245.246C119.956 244.923 120.253 244.674 120.634 244.498C121.023 244.322 121.466 244.234 121.965 244.234C122.684 244.234 123.27 244.414 123.725 244.773C124.187 245.132 124.447 245.609 124.506 246.203H123.406C123.369 245.91 123.215 245.653 122.944 245.433C122.673 245.206 122.313 245.092 121.866 245.092C121.448 245.092 121.107 245.202 120.843 245.422C120.579 245.635 120.447 245.935 120.447 246.324C120.447 246.603 120.524 246.83 120.678 247.006C120.839 247.182 121.034 247.318 121.261 247.413C121.496 247.501 121.822 247.604 122.24 247.721C122.746 247.86 123.153 248 123.461 248.139C123.769 248.271 124.033 248.48 124.253 248.766C124.473 249.045 124.583 249.426 124.583 249.91C124.583 250.284 124.484 250.636 124.286 250.966C124.088 251.296 123.795 251.564 123.406 251.769C123.017 251.974 122.559 252.077 122.031 252.077ZM131.556 248.755C131.556 248.946 131.545 249.147 131.523 249.36H126.705C126.742 249.954 126.943 250.42 127.31 250.757C127.684 251.087 128.135 251.252 128.663 251.252C129.096 251.252 129.455 251.153 129.741 250.955C130.034 250.75 130.24 250.478 130.357 250.141H131.435C131.274 250.72 130.951 251.193 130.467 251.56C129.983 251.919 129.382 252.099 128.663 252.099C128.091 252.099 127.578 251.971 127.123 251.714C126.676 251.457 126.324 251.094 126.067 250.625C125.81 250.148 125.682 249.598 125.682 248.975C125.682 248.352 125.807 247.805 126.056 247.336C126.305 246.867 126.654 246.507 127.101 246.258C127.556 246.001 128.076 245.873 128.663 245.873C129.235 245.873 129.741 245.998 130.181 246.247C130.621 246.496 130.958 246.841 131.193 247.281C131.435 247.714 131.556 248.205 131.556 248.755ZM130.522 248.546C130.522 248.165 130.438 247.838 130.269 247.567C130.1 247.288 129.869 247.079 129.576 246.94C129.29 246.793 128.971 246.72 128.619 246.72C128.113 246.72 127.68 246.881 127.321 247.204C126.969 247.527 126.767 247.974 126.716 248.546H130.522ZM133.878 247.083C134.076 246.738 134.37 246.452 134.758 246.225C135.154 245.99 135.613 245.873 136.133 245.873C136.669 245.873 137.153 246.001 137.585 246.258C138.025 246.515 138.37 246.878 138.619 247.347C138.869 247.809 138.993 248.348 138.993 248.964C138.993 249.573 138.869 250.115 138.619 250.592C138.37 251.069 138.025 251.439 137.585 251.703C137.153 251.967 136.669 252.099 136.133 252.099C135.62 252.099 135.165 251.985 134.769 251.758C134.381 251.523 134.084 251.234 133.878 250.889V254.86H132.877V245.972H133.878V247.083ZM137.97 248.964C137.97 248.509 137.879 248.113 137.695 247.776C137.512 247.439 137.263 247.182 136.947 247.006C136.639 246.83 136.298 246.742 135.924 246.742C135.558 246.742 135.217 246.834 134.901 247.017C134.593 247.193 134.344 247.453 134.153 247.798C133.97 248.135 133.878 248.528 133.878 248.975C133.878 249.43 133.97 249.829 134.153 250.174C134.344 250.511 134.593 250.772 134.901 250.955C135.217 251.131 135.558 251.219 135.924 251.219C136.298 251.219 136.639 251.131 136.947 250.955C137.263 250.772 137.512 250.511 137.695 250.174C137.879 249.829 137.97 249.426 137.97 248.964ZM142.957 251.197C143.889 250.449 144.618 249.837 145.146 249.36C145.674 248.876 146.118 248.374 146.477 247.853C146.844 247.325 147.027 246.808 147.027 246.302C147.027 245.825 146.91 245.451 146.675 245.18C146.448 244.901 146.078 244.762 145.564 244.762C145.066 244.762 144.677 244.92 144.398 245.235C144.127 245.543 143.98 245.957 143.958 246.478H142.99C143.02 245.657 143.269 245.022 143.738 244.575C144.208 244.128 144.813 243.904 145.553 243.904C146.309 243.904 146.906 244.113 147.346 244.531C147.794 244.949 148.017 245.525 148.017 246.258C148.017 246.867 147.834 247.461 147.467 248.04C147.108 248.612 146.697 249.118 146.235 249.558C145.773 249.991 145.183 250.497 144.464 251.076H148.248V251.912H142.957V251.197ZM149.142 244.96V244.047H151.21V252H150.198V244.96H149.142Z" fill="#6B7084"/>
<path d="M202.763 252.077C202.052 252.077 201.403 251.912 200.816 251.582C200.23 251.245 199.764 250.779 199.419 250.185C199.082 249.584 198.913 248.909 198.913 248.161C198.913 247.413 199.082 246.742 199.419 246.148C199.764 245.547 200.23 245.081 200.816 244.751C201.403 244.414 202.052 244.245 202.763 244.245C203.482 244.245 204.135 244.414 204.721 244.751C205.308 245.081 205.77 245.543 206.107 246.137C206.445 246.731 206.613 247.406 206.613 248.161C206.613 248.916 206.445 249.591 206.107 250.185C205.77 250.779 205.308 251.245 204.721 251.582C204.135 251.912 203.482 252.077 202.763 252.077ZM202.763 251.208C203.299 251.208 203.779 251.083 204.204 250.834C204.637 250.585 204.974 250.229 205.216 249.767C205.466 249.305 205.59 248.77 205.59 248.161C205.59 247.545 205.466 247.01 205.216 246.555C204.974 246.093 204.641 245.737 204.215 245.488C203.79 245.239 203.306 245.114 202.763 245.114C202.221 245.114 201.737 245.239 201.311 245.488C200.886 245.737 200.549 246.093 200.299 246.555C200.057 247.01 199.936 247.545 199.936 248.161C199.936 248.77 200.057 249.305 200.299 249.767C200.549 250.229 200.886 250.585 201.311 250.834C201.744 251.083 202.228 251.208 202.763 251.208ZM207.561 248.975C207.561 248.352 207.686 247.809 207.935 247.347C208.184 246.878 208.529 246.515 208.969 246.258C209.416 246.001 209.926 245.873 210.498 245.873C211.239 245.873 211.847 246.053 212.324 246.412C212.808 246.771 213.127 247.27 213.281 247.908H212.203C212.1 247.541 211.899 247.252 211.598 247.039C211.305 246.826 210.938 246.72 210.498 246.72C209.926 246.72 209.464 246.918 209.112 247.314C208.76 247.703 208.584 248.256 208.584 248.975C208.584 249.701 208.76 250.262 209.112 250.658C209.464 251.054 209.926 251.252 210.498 251.252C210.938 251.252 211.305 251.149 211.598 250.944C211.891 250.739 212.093 250.445 212.203 250.064H213.281C213.12 250.68 212.797 251.175 212.313 251.549C211.829 251.916 211.224 252.099 210.498 252.099C209.926 252.099 209.416 251.971 208.969 251.714C208.529 251.457 208.184 251.094 207.935 250.625C207.686 250.156 207.561 249.606 207.561 248.975ZM215.838 246.797V250.35C215.838 250.643 215.9 250.852 216.025 250.977C216.149 251.094 216.366 251.153 216.674 251.153H217.411V252H216.509C215.951 252 215.533 251.872 215.255 251.615C214.976 251.358 214.837 250.937 214.837 250.35V246.797H214.056V245.972H214.837V244.454H215.838V245.972H217.411V246.797H215.838ZM221.27 251.197C222.201 250.449 222.931 249.837 223.459 249.36C223.987 248.876 224.431 248.374 224.79 247.853C225.157 247.325 225.34 246.808 225.34 246.302C225.34 245.825 225.223 245.451 224.988 245.18C224.761 244.901 224.39 244.762 223.877 244.762C223.378 244.762 222.99 244.92 222.711 245.235C222.44 245.543 222.293 245.957 222.271 246.478H221.303C221.332 245.657 221.582 245.022 222.051 244.575C222.52 244.128 223.125 243.904 223.866 243.904C224.621 243.904 225.219 244.113 225.659 244.531C226.106 244.949 226.33 245.525 226.33 246.258C226.33 246.867 226.147 247.461 225.78 248.04C225.421 248.612 225.01 249.118 224.548 249.558C224.086 249.991 223.496 250.497 222.777 251.076H226.561V251.912H221.27V251.197ZM227.454 244.96V244.047H229.522V252H228.51V244.96H227.454Z" fill="#6B7084"/>
<path d="M283.515 252H282.514L278.488 245.895V252H277.487V244.322H278.488L282.514 250.416V244.322H283.515V252ZM287.851 252.099C287.286 252.099 286.773 251.971 286.311 251.714C285.856 251.457 285.497 251.094 285.233 250.625C284.976 250.148 284.848 249.598 284.848 248.975C284.848 248.359 284.98 247.816 285.244 247.347C285.515 246.87 285.882 246.507 286.344 246.258C286.806 246.001 287.323 245.873 287.895 245.873C288.467 245.873 288.984 246.001 289.446 246.258C289.908 246.507 290.271 246.867 290.535 247.336C290.806 247.805 290.942 248.352 290.942 248.975C290.942 249.598 290.802 250.148 290.524 250.625C290.252 251.094 289.882 251.457 289.413 251.714C288.943 251.971 288.423 252.099 287.851 252.099ZM287.851 251.219C288.21 251.219 288.547 251.135 288.863 250.966C289.178 250.797 289.431 250.544 289.622 250.207C289.82 249.87 289.919 249.459 289.919 248.975C289.919 248.491 289.823 248.08 289.633 247.743C289.442 247.406 289.193 247.156 288.885 246.995C288.577 246.826 288.243 246.742 287.884 246.742C287.517 246.742 287.18 246.826 286.872 246.995C286.571 247.156 286.329 247.406 286.146 247.743C285.962 248.08 285.871 248.491 285.871 248.975C285.871 249.466 285.959 249.881 286.135 250.218C286.318 250.555 286.56 250.808 286.861 250.977C287.161 251.138 287.491 251.219 287.851 251.219ZM294.502 251.076L296.372 245.972H297.439L295.074 252H293.908L291.543 245.972H292.621L294.502 251.076ZM301.07 251.197C302.002 250.449 302.731 249.837 303.259 249.36C303.787 248.876 304.231 248.374 304.59 247.853C304.957 247.325 305.14 246.808 305.14 246.302C305.14 245.825 305.023 245.451 304.788 245.18C304.561 244.901 304.191 244.762 303.677 244.762C303.179 244.762 302.79 244.92 302.511 245.235C302.24 245.543 302.093 245.957 302.071 246.478H301.103C301.133 245.657 301.382 245.022 301.851 244.575C302.321 244.128 302.926 243.904 303.666 243.904C304.422 243.904 305.019 244.113 305.459 244.531C305.907 244.949 306.13 245.525 306.13 246.258C306.13 246.867 305.947 247.461 305.58 248.04C305.221 248.612 304.81 249.118 304.348 249.558C303.886 249.991 303.296 250.497 302.577 251.076H306.361V251.912H301.07V251.197ZM307.254 244.96V244.047H309.322V252H308.31V244.96H307.254Z" fill="#6B7084"/>
<path d="M358.702 244.333C359.538 244.333 360.261 244.491 360.869 244.806C361.485 245.114 361.955 245.558 362.277 246.137C362.607 246.716 362.772 247.398 362.772 248.183C362.772 248.968 362.607 249.65 362.277 250.229C361.955 250.801 361.485 251.241 360.869 251.549C360.261 251.85 359.538 252 358.702 252H356.315V244.333H358.702ZM358.702 251.175C359.692 251.175 360.448 250.915 360.968 250.394C361.489 249.866 361.749 249.129 361.749 248.183C361.749 247.23 361.485 246.485 360.957 245.95C360.437 245.415 359.685 245.147 358.702 245.147H357.316V251.175H358.702ZM369.593 248.755C369.593 248.946 369.582 249.147 369.56 249.36H364.742C364.778 249.954 364.98 250.42 365.347 250.757C365.721 251.087 366.172 251.252 366.7 251.252C367.132 251.252 367.492 251.153 367.778 250.955C368.071 250.75 368.276 250.478 368.394 250.141H369.472C369.31 250.72 368.988 251.193 368.504 251.56C368.02 251.919 367.418 252.099 366.7 252.099C366.128 252.099 365.614 251.971 365.16 251.714C364.712 251.457 364.36 251.094 364.104 250.625C363.847 250.148 363.719 249.598 363.719 248.975C363.719 248.352 363.843 247.805 364.093 247.336C364.342 246.867 364.69 246.507 365.138 246.258C365.592 246.001 366.113 245.873 366.7 245.873C367.272 245.873 367.778 245.998 368.218 246.247C368.658 246.496 368.995 246.841 369.23 247.281C369.472 247.714 369.593 248.205 369.593 248.755ZM368.559 248.546C368.559 248.165 368.474 247.838 368.306 247.567C368.137 247.288 367.906 247.079 367.613 246.94C367.327 246.793 367.008 246.72 366.656 246.72C366.15 246.72 365.717 246.881 365.358 247.204C365.006 247.527 364.804 247.974 364.753 248.546H368.559ZM370.54 248.975C370.54 248.352 370.665 247.809 370.914 247.347C371.163 246.878 371.508 246.515 371.948 246.258C372.395 246.001 372.905 245.873 373.477 245.873C374.218 245.873 374.826 246.053 375.303 246.412C375.787 246.771 376.106 247.27 376.26 247.908H375.182C375.079 247.541 374.878 247.252 374.577 247.039C374.284 246.826 373.917 246.72 373.477 246.72C372.905 246.72 372.443 246.918 372.091 247.314C371.739 247.703 371.563 248.256 371.563 248.975C371.563 249.701 371.739 250.262 372.091 250.658C372.443 251.054 372.905 251.252 373.477 251.252C373.917 251.252 374.284 251.149 374.577 250.944C374.87 250.739 375.072 250.445 375.182 250.064H376.26C376.099 250.68 375.776 251.175 375.292 251.549C374.808 251.916 374.203 252.099 373.477 252.099C372.905 252.099 372.395 251.971 371.948 251.714C371.508 251.457 371.163 251.094 370.914 250.625C370.665 250.156 370.54 249.606 370.54 248.975ZM380.242 251.197C381.173 250.449 381.903 249.837 382.431 249.36C382.959 248.876 383.403 248.374 383.762 247.853C384.129 247.325 384.312 246.808 384.312 246.302C384.312 245.825 384.195 245.451 383.96 245.18C383.733 244.901 383.362 244.762 382.849 244.762C382.35 244.762 381.962 244.92 381.683 245.235C381.412 245.543 381.265 245.957 381.243 246.478H380.275C380.304 245.657 380.554 245.022 381.023 244.575C381.492 244.128 382.097 243.904 382.838 243.904C383.593 243.904 384.191 244.113 384.631 244.531C385.078 244.949 385.302 245.525 385.302 246.258C385.302 246.867 385.119 247.461 384.752 248.04C384.393 248.612 383.982 249.118 383.52 249.558C383.058 249.991 382.468 250.497 381.749 251.076H385.533V251.912H380.242V251.197ZM386.426 244.96V244.047H388.494V252H387.482V244.96H386.426Z" fill="#6B7084"/>
<path d="M438.263 244.333V249.998C438.263 250.629 438.069 251.135 437.68 251.516C437.292 251.89 436.778 252.077 436.14 252.077C435.495 252.077 434.978 251.886 434.589 251.505C434.201 251.116 434.006 250.588 434.006 249.921H435.007C435.015 250.295 435.11 250.599 435.293 250.834C435.484 251.069 435.766 251.186 436.14 251.186C436.514 251.186 436.793 251.076 436.976 250.856C437.16 250.629 437.251 250.343 437.251 249.998V244.333H438.263ZM439.861 248.964C439.861 248.348 439.986 247.809 440.235 247.347C440.485 246.878 440.826 246.515 441.258 246.258C441.698 246.001 442.186 245.873 442.721 245.873C443.249 245.873 443.708 245.987 444.096 246.214C444.485 246.441 444.775 246.727 444.965 247.072V245.972H445.977V252H444.965V250.878C444.767 251.23 444.47 251.523 444.074 251.758C443.686 251.985 443.231 252.099 442.71 252.099C442.175 252.099 441.691 251.967 441.258 251.703C440.826 251.439 440.485 251.069 440.235 250.592C439.986 250.115 439.861 249.573 439.861 248.964ZM444.965 248.975C444.965 248.52 444.874 248.124 444.69 247.787C444.507 247.45 444.258 247.193 443.942 247.017C443.634 246.834 443.293 246.742 442.919 246.742C442.545 246.742 442.204 246.83 441.896 247.006C441.588 247.182 441.343 247.439 441.159 247.776C440.976 248.113 440.884 248.509 440.884 248.964C440.884 249.426 440.976 249.829 441.159 250.174C441.343 250.511 441.588 250.772 441.896 250.955C442.204 251.131 442.545 251.219 442.919 251.219C443.293 251.219 443.634 251.131 443.942 250.955C444.258 250.772 444.507 250.511 444.69 250.174C444.874 249.829 444.965 249.43 444.965 248.975ZM450.606 245.862C451.339 245.862 451.933 246.086 452.388 246.533C452.842 246.973 453.07 247.611 453.07 248.447V252H452.08V248.59C452.08 247.989 451.929 247.53 451.629 247.215C451.328 246.892 450.917 246.731 450.397 246.731C449.869 246.731 449.447 246.896 449.132 247.226C448.824 247.556 448.67 248.036 448.67 248.667V252H447.669V245.972H448.67V246.83C448.868 246.522 449.135 246.284 449.473 246.115C449.817 245.946 450.195 245.862 450.606 245.862ZM457.352 251.197C458.283 250.449 459.013 249.837 459.541 249.36C460.069 248.876 460.512 248.374 460.872 247.853C461.238 247.325 461.422 246.808 461.422 246.302C461.422 245.825 461.304 245.451 461.07 245.18C460.842 244.901 460.472 244.762 459.959 244.762C459.46 244.762 459.071 244.92 458.793 245.235C458.521 245.543 458.375 245.957 458.353 246.478H457.385C457.414 245.657 457.663 245.022 458.133 244.575C458.602 244.128 459.207 243.904 459.948 243.904C460.703 243.904 461.301 244.113 461.741 244.531C462.188 244.949 462.412 245.525 462.412 246.258C462.412 246.867 462.228 247.461 461.862 248.04C461.502 248.612 461.092 249.118 460.63 249.558C460.168 249.991 459.577 250.497 458.859 251.076H462.643V251.912H457.352V251.197ZM463.679 251.197C464.61 250.449 465.34 249.837 465.868 249.36C466.396 248.876 466.839 248.374 467.199 247.853C467.565 247.325 467.749 246.808 467.749 246.302C467.749 245.825 467.631 245.451 467.397 245.18C467.169 244.901 466.799 244.762 466.286 244.762C465.787 244.762 465.398 244.92 465.12 245.235C464.848 245.543 464.702 245.957 464.68 246.478H463.712C463.741 245.657 463.99 245.022 464.46 244.575C464.929 244.128 465.534 243.904 466.275 243.904C467.03 243.904 467.628 244.113 468.068 244.531C468.515 244.949 468.739 245.525 468.739 246.258C468.739 246.867 468.555 247.461 468.189 248.04C467.829 248.612 467.419 249.118 466.957 249.558C466.495 249.991 465.904 250.497 465.186 251.076H468.97V251.912H463.679V251.197Z" fill="#6B7084"/>
<path d="M517.989 244.333V245.147H514.656V247.732H517.362V248.546H514.656V252H513.655V244.333H517.989ZM524.698 248.755C524.698 248.946 524.687 249.147 524.665 249.36H519.847C519.883 249.954 520.085 250.42 520.452 250.757C520.826 251.087 521.277 251.252 521.805 251.252C522.237 251.252 522.597 251.153 522.883 250.955C523.176 250.75 523.381 250.478 523.499 250.141H524.577C524.415 250.72 524.093 251.193 523.609 251.56C523.125 251.919 522.523 252.099 521.805 252.099C521.233 252.099 520.719 251.971 520.265 251.714C519.817 251.457 519.465 251.094 519.209 250.625C518.952 250.148 518.824 249.598 518.824 248.975C518.824 248.352 518.948 247.805 519.198 247.336C519.447 246.867 519.795 246.507 520.243 246.258C520.697 246.001 521.218 245.873 521.805 245.873C522.377 245.873 522.883 245.998 523.323 246.247C523.763 246.496 524.1 246.841 524.335 247.281C524.577 247.714 524.698 248.205 524.698 248.755ZM523.664 248.546C523.664 248.165 523.579 247.838 523.411 247.567C523.242 247.288 523.011 247.079 522.718 246.94C522.432 246.793 522.113 246.72 521.761 246.72C521.255 246.72 520.822 246.881 520.463 247.204C520.111 247.527 519.909 247.974 519.858 248.546H523.664ZM527.02 247.094C527.225 246.735 527.526 246.441 527.922 246.214C528.318 245.987 528.769 245.873 529.275 245.873C529.818 245.873 530.305 246.001 530.738 246.258C531.171 246.515 531.512 246.878 531.761 247.347C532.01 247.809 532.135 248.348 532.135 248.964C532.135 249.573 532.01 250.115 531.761 250.592C531.512 251.069 531.167 251.439 530.727 251.703C530.294 251.967 529.81 252.099 529.275 252.099C528.754 252.099 528.296 251.985 527.9 251.758C527.511 251.531 527.218 251.241 527.02 250.889V252H526.019V243.86H527.02V247.094ZM531.112 248.964C531.112 248.509 531.02 248.113 530.837 247.776C530.654 247.439 530.404 247.182 530.089 247.006C529.781 246.83 529.44 246.742 529.066 246.742C528.699 246.742 528.358 246.834 528.043 247.017C527.735 247.193 527.486 247.453 527.295 247.798C527.112 248.135 527.02 248.528 527.02 248.975C527.02 249.43 527.112 249.829 527.295 250.174C527.486 250.511 527.735 250.772 528.043 250.955C528.358 251.131 528.699 251.219 529.066 251.219C529.44 251.219 529.781 251.131 530.089 250.955C530.404 250.772 530.654 250.511 530.837 250.174C531.02 249.829 531.112 249.426 531.112 248.964ZM536.099 251.197C537.03 250.449 537.76 249.837 538.288 249.36C538.816 248.876 539.26 248.374 539.619 247.853C539.986 247.325 540.169 246.808 540.169 246.302C540.169 245.825 540.052 245.451 539.817 245.18C539.59 244.901 539.219 244.762 538.706 244.762C538.207 244.762 537.819 244.92 537.54 245.235C537.269 245.543 537.122 245.957 537.1 246.478H536.132C536.161 245.657 536.411 245.022 536.88 244.575C537.349 244.128 537.954 243.904 538.695 243.904C539.45 243.904 540.048 244.113 540.488 244.531C540.935 244.949 541.159 245.525 541.159 246.258C541.159 246.867 540.976 247.461 540.609 248.04C540.25 248.612 539.839 249.118 539.377 249.558C538.915 249.991 538.325 250.497 537.606 251.076H541.39V251.912H536.099V251.197ZM542.426 251.197C543.358 250.449 544.087 249.837 544.615 249.36C545.143 248.876 545.587 248.374 545.946 247.853C546.313 247.325 546.496 246.808 546.496 246.302C546.496 245.825 546.379 245.451 546.144 245.18C545.917 244.901 545.547 244.762 545.033 244.762C544.535 244.762 544.146 244.92 543.867 245.235C543.596 245.543 543.449 245.957 543.427 246.478H542.459C542.489 245.657 542.738 245.022 543.207 244.575C543.677 244.128 544.282 243.904 545.022 243.904C545.778 243.904 546.375 244.113 546.815 244.531C547.263 244.949 547.486 245.525 547.486 246.258C547.486 246.867 547.303 247.461 546.936 248.04C546.577 248.612 546.166 249.118 545.704 249.558C545.242 249.991 544.652 250.497 543.933 251.076H547.717V251.912H542.426V251.197Z" fill="#6B7084"/>
<path d="M599.825 244.388V252H598.824V246.324L596.294 252H595.59L593.049 246.313V252H592.048V244.388H593.126L595.942 250.68L598.758 244.388H599.825ZM601.148 248.964C601.148 248.348 601.273 247.809 601.522 247.347C601.772 246.878 602.113 246.515 602.545 246.258C602.985 246.001 603.473 245.873 604.008 245.873C604.536 245.873 604.995 245.987 605.383 246.214C605.772 246.441 606.062 246.727 606.252 247.072V245.972H607.264V252H606.252V250.878C606.054 251.23 605.757 251.523 605.361 251.758C604.973 251.985 604.518 252.099 603.997 252.099C603.462 252.099 602.978 251.967 602.545 251.703C602.113 251.439 601.772 251.069 601.522 250.592C601.273 250.115 601.148 249.573 601.148 248.964ZM606.252 248.975C606.252 248.52 606.161 248.124 605.977 247.787C605.794 247.45 605.545 247.193 605.229 247.017C604.921 246.834 604.58 246.742 604.206 246.742C603.832 246.742 603.491 246.83 603.183 247.006C602.875 247.182 602.63 247.439 602.446 247.776C602.263 248.113 602.171 248.509 602.171 248.964C602.171 249.426 602.263 249.829 602.446 250.174C602.63 250.511 602.875 250.772 603.183 250.955C603.491 251.131 603.832 251.219 604.206 251.219C604.58 251.219 604.921 251.131 605.229 250.955C605.545 250.772 605.794 250.511 605.977 250.174C606.161 249.829 606.252 249.43 606.252 248.975ZM609.957 246.951C610.133 246.606 610.382 246.339 610.705 246.148C611.035 245.957 611.435 245.862 611.904 245.862V246.896H611.64C610.518 246.896 609.957 247.505 609.957 248.722V252H608.956V245.972H609.957V246.951ZM615.706 251.197C616.637 250.449 617.367 249.837 617.895 249.36C618.423 248.876 618.867 248.374 619.226 247.853C619.593 247.325 619.776 246.808 619.776 246.302C619.776 245.825 619.659 245.451 619.424 245.18C619.197 244.901 618.826 244.762 618.313 244.762C617.814 244.762 617.426 244.92 617.147 245.235C616.876 245.543 616.729 245.957 616.707 246.478H615.739C615.768 245.657 616.018 245.022 616.487 244.575C616.956 244.128 617.561 243.904 618.302 243.904C619.057 243.904 619.655 244.113 620.095 244.531C620.542 244.949 620.766 245.525 620.766 246.258C620.766 246.867 620.583 247.461 620.216 248.04C619.857 248.612 619.446 249.118 618.984 249.558C618.522 249.991 617.932 250.497 617.213 251.076H620.997V251.912H615.706V251.197ZM622.033 251.197C622.965 250.449 623.694 249.837 624.222 249.36C624.75 248.876 625.194 248.374 625.553 247.853C625.92 247.325 626.103 246.808 626.103 246.302C626.103 245.825 625.986 245.451 625.751 245.18C625.524 244.901 625.154 244.762 624.64 244.762C624.142 244.762 623.753 244.92 623.474 245.235C623.203 245.543 623.056 245.957 623.034 246.478H622.066C622.096 245.657 622.345 245.022 622.814 244.575C623.284 244.128 623.889 243.904 624.629 243.904C625.385 243.904 625.982 244.113 626.422 244.531C626.87 244.949 627.093 245.525 627.093 246.258C627.093 246.867 626.91 247.461 626.543 248.04C626.184 248.612 625.773 249.118 625.311 249.558C624.849 249.991 624.259 250.497 623.54 251.076H627.324V251.912H622.033V251.197Z" fill="#6B7084"/>
<path d="M676.611 250.295H673.267L672.651 252H671.595L674.367 244.377H675.522L678.283 252H677.227L676.611 250.295ZM676.325 249.481L674.939 245.609L673.553 249.481H676.325ZM680.492 247.083C680.69 246.738 680.983 246.452 681.372 246.225C681.768 245.99 682.226 245.873 682.747 245.873C683.282 245.873 683.766 246.001 684.199 246.258C684.639 246.515 684.984 246.878 685.233 247.347C685.482 247.809 685.607 248.348 685.607 248.964C685.607 249.573 685.482 250.115 685.233 250.592C684.984 251.069 684.639 251.439 684.199 251.703C683.766 251.967 683.282 252.099 682.747 252.099C682.234 252.099 681.779 251.985 681.383 251.758C680.994 251.523 680.697 251.234 680.492 250.889V254.86H679.491V245.972H680.492V247.083ZM684.584 248.964C684.584 248.509 684.492 248.113 684.309 247.776C684.126 247.439 683.876 247.182 683.561 247.006C683.253 246.83 682.912 246.742 682.538 246.742C682.171 246.742 681.83 246.834 681.515 247.017C681.207 247.193 680.958 247.453 680.767 247.798C680.584 248.135 680.492 248.528 680.492 248.975C680.492 249.43 680.584 249.829 680.767 250.174C680.958 250.511 681.207 250.772 681.515 250.955C681.83 251.131 682.171 251.219 682.538 251.219C682.912 251.219 683.253 251.131 683.561 250.955C683.876 250.772 684.126 250.511 684.309 250.174C684.492 249.829 684.584 249.426 684.584 248.964ZM687.926 246.951C688.102 246.606 688.351 246.339 688.674 246.148C689.004 245.957 689.403 245.862 689.873 245.862V246.896H689.609C688.487 246.896 687.926 247.505 687.926 248.722V252H686.925V245.972H687.926V246.951ZM693.675 251.197C694.606 250.449 695.336 249.837 695.864 249.36C696.392 248.876 696.835 248.374 697.195 247.853C697.561 247.325 697.745 246.808 697.745 246.302C697.745 245.825 697.627 245.451 697.393 245.18C697.165 244.901 696.795 244.762 696.282 244.762C695.783 244.762 695.394 244.92 695.116 245.235C694.844 245.543 694.698 245.957 694.676 246.478H693.708C693.737 245.657 693.986 245.022 694.456 244.575C694.925 244.128 695.53 243.904 696.271 243.904C697.026 243.904 697.624 244.113 698.064 244.531C698.511 244.949 698.735 245.525 698.735 246.258C698.735 246.867 698.551 247.461 698.185 248.04C697.825 248.612 697.415 249.118 696.953 249.558C696.491 249.991 695.9 250.497 695.182 251.076H698.966V251.912H693.675V251.197ZM700.002 251.197C700.933 250.449 701.663 249.837 702.191 249.36C702.719 248.876 703.163 248.374 703.522 247.853C703.889 247.325 704.072 246.808 704.072 246.302C704.072 245.825 703.955 245.451 703.72 245.18C703.493 244.901 703.122 244.762 702.609 244.762C702.11 244.762 701.722 244.92 701.443 245.235C701.172 245.543 701.025 245.957 701.003 246.478H700.035C700.064 245.657 700.314 245.022 700.783 244.575C701.252 244.128 701.857 243.904 702.598 243.904C703.353 243.904 703.951 244.113 704.391 244.531C704.838 244.949 705.062 245.525 705.062 246.258C705.062 246.867 704.879 247.461 704.512 248.04C704.153 248.612 703.742 249.118 703.28 249.558C702.818 249.991 702.228 250.497 701.509 251.076H705.293V251.912H700.002V251.197Z" fill="#6B7084"/>
<path d="M756.777 244.388V252H755.776V246.324L753.246 252H752.542L750.001 246.313V252H749V244.388H750.078L752.894 250.68L755.71 244.388H756.777ZM758.101 248.964C758.101 248.348 758.226 247.809 758.475 247.347C758.724 246.878 759.065 246.515 759.498 246.258C759.938 246.001 760.426 245.873 760.961 245.873C761.489 245.873 761.947 245.987 762.336 246.214C762.725 246.441 763.014 246.727 763.205 247.072V245.972H764.217V252H763.205V250.878C763.007 251.23 762.71 251.523 762.314 251.758C761.925 251.985 761.471 252.099 760.95 252.099C760.415 252.099 759.931 251.967 759.498 251.703C759.065 251.439 758.724 251.069 758.475 250.592C758.226 250.115 758.101 249.573 758.101 248.964ZM763.205 248.975C763.205 248.52 763.113 248.124 762.93 247.787C762.747 247.45 762.497 247.193 762.182 247.017C761.874 246.834 761.533 246.742 761.159 246.742C760.785 246.742 760.444 246.83 760.136 247.006C759.828 247.182 759.582 247.439 759.399 247.776C759.216 248.113 759.124 248.509 759.124 248.964C759.124 249.426 759.216 249.829 759.399 250.174C759.582 250.511 759.828 250.772 760.136 250.955C760.444 251.131 760.785 251.219 761.159 251.219C761.533 251.219 761.874 251.131 762.182 250.955C762.497 250.772 762.747 250.511 762.93 250.174C763.113 249.829 763.205 249.43 763.205 248.975ZM771.101 245.972L767.471 254.838H766.437L767.625 251.934L765.194 245.972H766.305L768.197 250.856L770.067 245.972H771.101ZM774.753 251.197C775.685 250.449 776.414 249.837 776.942 249.36C777.47 248.876 777.914 248.374 778.273 247.853C778.64 247.325 778.823 246.808 778.823 246.302C778.823 245.825 778.706 245.451 778.471 245.18C778.244 244.901 777.874 244.762 777.36 244.762C776.862 244.762 776.473 244.92 776.194 245.235C775.923 245.543 775.776 245.957 775.754 246.478H774.786C774.816 245.657 775.065 245.022 775.534 244.575C776.004 244.128 776.609 243.904 777.349 243.904C778.105 243.904 778.702 244.113 779.142 244.531C779.59 244.949 779.813 245.525 779.813 246.258C779.813 246.867 779.63 247.461 779.263 248.04C778.904 248.612 778.493 249.118 778.031 249.558C777.569 249.991 776.979 250.497 776.26 251.076H780.044V251.912H774.753V251.197ZM781.081 251.197C782.012 250.449 782.742 249.837 783.27 249.36C783.798 248.876 784.241 248.374 784.601 247.853C784.967 247.325 785.151 246.808 785.151 246.302C785.151 245.825 785.033 245.451 784.799 245.18C784.571 244.901 784.201 244.762 783.688 244.762C783.189 244.762 782.8 244.92 782.522 245.235C782.25 245.543 782.104 245.957 782.082 246.478H781.114C781.143 245.657 781.392 245.022 781.862 244.575C782.331 244.128 782.936 243.904 783.677 243.904C784.432 243.904 785.03 244.113 785.47 244.531C785.917 244.949 786.141 245.525 786.141 246.258C786.141 246.867 785.957 247.461 785.591 248.04C785.231 248.612 784.821 249.118 784.359 249.558C783.897 249.991 783.306 250.497 782.588 251.076H786.372V251.912H781.081V251.197Z" fill="#6B7084"/>
<path d="M833.462 244.333V249.998C833.462 250.629 833.268 251.135 832.879 251.516C832.49 251.89 831.977 252.077 831.339 252.077C830.694 252.077 830.177 251.886 829.788 251.505C829.399 251.116 829.205 250.588 829.205 249.921H830.206C830.213 250.295 830.309 250.599 830.492 250.834C830.683 251.069 830.965 251.186 831.339 251.186C831.713 251.186 831.992 251.076 832.175 250.856C832.358 250.629 832.45 250.343 832.45 249.998V244.333H833.462ZM840.78 245.972V252H839.779V251.109C839.588 251.417 839.321 251.659 838.976 251.835C838.639 252.004 838.265 252.088 837.854 252.088C837.385 252.088 836.963 251.993 836.589 251.802C836.215 251.604 835.918 251.311 835.698 250.922C835.485 250.533 835.379 250.06 835.379 249.503V245.972H836.369V249.371C836.369 249.965 836.519 250.423 836.82 250.746C837.121 251.061 837.531 251.219 838.052 251.219C838.587 251.219 839.009 251.054 839.317 250.724C839.625 250.394 839.779 249.914 839.779 249.283V245.972H840.78ZM845.407 245.862C846.14 245.862 846.734 246.086 847.189 246.533C847.644 246.973 847.871 247.611 847.871 248.447V252H846.881V248.59C846.881 247.989 846.731 247.53 846.43 247.215C846.129 246.892 845.719 246.731 845.198 246.731C844.67 246.731 844.248 246.896 843.933 247.226C843.625 247.556 843.471 248.036 843.471 248.667V252H842.47V245.972H843.471V246.83C843.669 246.522 843.937 246.284 844.274 246.115C844.619 245.946 844.996 245.862 845.407 245.862ZM852.153 251.197C853.084 250.449 853.814 249.837 854.342 249.36C854.87 248.876 855.313 248.374 855.673 247.853C856.039 247.325 856.223 246.808 856.223 246.302C856.223 245.825 856.105 245.451 855.871 245.18C855.643 244.901 855.273 244.762 854.76 244.762C854.261 244.762 853.872 244.92 853.594 245.235C853.322 245.543 853.176 245.957 853.154 246.478H852.186C852.215 245.657 852.464 245.022 852.934 244.575C853.403 244.128 854.008 243.904 854.749 243.904C855.504 243.904 856.102 244.113 856.542 244.531C856.989 244.949 857.213 245.525 857.213 246.258C857.213 246.867 857.029 247.461 856.663 248.04C856.303 248.612 855.893 249.118 855.431 249.558C854.969 249.991 854.378 250.497 853.66 251.076H857.444V251.912H852.153V251.197ZM858.48 251.197C859.411 250.449 860.141 249.837 860.669 249.36C861.197 248.876 861.641 248.374 862 247.853C862.367 247.325 862.55 246.808 862.55 246.302C862.55 245.825 862.433 245.451 862.198 245.18C861.971 244.901 861.6 244.762 861.087 244.762C860.588 244.762 860.2 244.92 859.921 245.235C859.65 245.543 859.503 245.957 859.481 246.478H858.513C858.542 245.657 858.792 245.022 859.261 244.575C859.73 244.128 860.335 243.904 861.076 243.904C861.831 243.904 862.429 244.113 862.869 244.531C863.316 244.949 863.54 245.525 863.54 246.258C863.54 246.867 863.357 247.461 862.99 248.04C862.631 248.612 862.22 249.118 861.758 249.558C861.296 249.991 860.706 250.497 859.987 251.076H863.771V251.912H858.48V251.197Z" fill="#6B7084"/>
<path d="M914.626 244.333V249.998C914.626 250.629 914.432 251.135 914.043 251.516C913.655 251.89 913.141 252.077 912.503 252.077C911.858 252.077 911.341 251.886 910.952 251.505C910.564 251.116 910.369 250.588 910.369 249.921H911.37C911.378 250.295 911.473 250.599 911.656 250.834C911.847 251.069 912.129 251.186 912.503 251.186C912.877 251.186 913.156 251.076 913.339 250.856C913.523 250.629 913.614 250.343 913.614 249.998V244.333H914.626ZM921.944 245.972V252H920.943V251.109C920.753 251.417 920.485 251.659 920.14 251.835C919.803 252.004 919.429 252.088 919.018 252.088C918.549 252.088 918.127 251.993 917.753 251.802C917.379 251.604 917.082 251.311 916.862 250.922C916.65 250.533 916.543 250.06 916.543 249.503V245.972H917.533V249.371C917.533 249.965 917.684 250.423 917.984 250.746C918.285 251.061 918.696 251.219 919.216 251.219C919.752 251.219 920.173 251.054 920.481 250.724C920.789 250.394 920.943 249.914 920.943 249.283V245.972H921.944ZM924.636 243.86V252H923.635V243.86H924.636ZM928.988 251.197C929.92 250.449 930.649 249.837 931.177 249.36C931.705 248.876 932.149 248.374 932.508 247.853C932.875 247.325 933.058 246.808 933.058 246.302C933.058 245.825 932.941 245.451 932.706 245.18C932.479 244.901 932.109 244.762 931.595 244.762C931.097 244.762 930.708 244.92 930.429 245.235C930.158 245.543 930.011 245.957 929.989 246.478H929.021C929.051 245.657 929.3 245.022 929.769 244.575C930.239 244.128 930.844 243.904 931.584 243.904C932.34 243.904 932.937 244.113 933.377 244.531C933.825 244.949 934.048 245.525 934.048 246.258C934.048 246.867 933.865 247.461 933.498 248.04C933.139 248.612 932.728 249.118 932.266 249.558C931.804 249.991 931.214 250.497 930.495 251.076H934.279V251.912H928.988V251.197ZM935.315 251.197C936.247 250.449 936.976 249.837 937.504 249.36C938.032 248.876 938.476 248.374 938.835 247.853C939.202 247.325 939.385 246.808 939.385 246.302C939.385 245.825 939.268 245.451 939.033 245.18C938.806 244.901 938.436 244.762 937.922 244.762C937.424 244.762 937.035 244.92 936.756 245.235C936.485 245.543 936.338 245.957 936.316 246.478H935.348C935.378 245.657 935.627 245.022 936.096 244.575C936.566 244.128 937.171 243.904 937.911 243.904C938.667 243.904 939.264 244.113 939.704 244.531C940.152 244.949 940.375 245.525 940.375 246.258C940.375 246.867 940.192 247.461 939.825 248.04C939.466 248.612 939.055 249.118 938.593 249.558C938.131 249.991 937.541 250.497 936.822 251.076H940.606V251.912H935.315V251.197Z" fill="#6B7084"/>
<path d="M991.145 250.295H987.801L987.185 252H986.129L988.901 244.377H990.056L992.817 252H991.761L991.145 250.295ZM990.859 249.481L989.473 245.609L988.087 249.481H990.859ZM999.371 245.972V252H998.37V251.109C998.179 251.417 997.911 251.659 997.567 251.835C997.229 252.004 996.855 252.088 996.445 252.088C995.975 252.088 995.554 251.993 995.18 251.802C994.806 251.604 994.509 251.311 994.289 250.922C994.076 250.533 993.97 250.06 993.97 249.503V245.972H994.96V249.371C994.96 249.965 995.11 250.423 995.411 250.746C995.711 251.061 996.122 251.219 996.643 251.219C997.178 251.219 997.6 251.054 997.908 250.724C998.216 250.394 998.37 249.914 998.37 249.283V245.972H999.371ZM1003.55 245.873C1004.07 245.873 1004.52 245.987 1004.91 246.214C1005.31 246.441 1005.6 246.727 1005.79 247.072V245.972H1006.8V252.132C1006.8 252.682 1006.69 253.17 1006.45 253.595C1006.22 254.028 1005.88 254.365 1005.44 254.607C1005.01 254.849 1004.5 254.97 1003.92 254.97C1003.13 254.97 1002.47 254.783 1001.94 254.409C1001.41 254.035 1001.1 253.525 1001.01 252.88H1002C1002.11 253.247 1002.33 253.54 1002.68 253.76C1003.02 253.987 1003.44 254.101 1003.92 254.101C1004.47 254.101 1004.92 253.929 1005.26 253.584C1005.61 253.239 1005.79 252.755 1005.79 252.132V250.867C1005.59 251.219 1005.3 251.512 1004.91 251.747C1004.52 251.982 1004.07 252.099 1003.55 252.099C1003.01 252.099 1002.52 251.967 1002.08 251.703C1001.65 251.439 1001.31 251.069 1001.06 250.592C1000.81 250.115 1000.69 249.573 1000.69 248.964C1000.69 248.348 1000.81 247.809 1001.06 247.347C1001.31 246.878 1001.65 246.515 1002.08 246.258C1002.52 246.001 1003.01 245.873 1003.55 245.873ZM1005.79 248.975C1005.79 248.52 1005.7 248.124 1005.52 247.787C1005.33 247.45 1005.08 247.193 1004.77 247.017C1004.46 246.834 1004.12 246.742 1003.74 246.742C1003.37 246.742 1003.03 246.83 1002.72 247.006C1002.41 247.182 1002.17 247.439 1001.98 247.776C1001.8 248.113 1001.71 248.509 1001.71 248.964C1001.71 249.426 1001.8 249.829 1001.98 250.174C1002.17 250.511 1002.41 250.772 1002.72 250.955C1003.03 251.131 1003.37 251.219 1003.74 251.219C1004.12 251.219 1004.46 251.131 1004.77 250.955C1005.08 250.772 1005.33 250.511 1005.52 250.174C1005.7 249.829 1005.79 249.43 1005.79 248.975ZM1011.14 251.197C1012.07 250.449 1012.8 249.837 1013.33 249.36C1013.86 248.876 1014.3 248.374 1014.66 247.853C1015.03 247.325 1015.21 246.808 1015.21 246.302C1015.21 245.825 1015.09 245.451 1014.86 245.18C1014.63 244.901 1014.26 244.762 1013.75 244.762C1013.25 244.762 1012.86 244.92 1012.58 245.235C1012.31 245.543 1012.16 245.957 1012.14 246.478H1011.17C1011.2 245.657 1011.45 245.022 1011.92 244.575C1012.39 244.128 1013 243.904 1013.74 243.904C1014.49 243.904 1015.09 244.113 1015.53 244.531C1015.98 244.949 1016.2 245.525 1016.2 246.258C1016.2 246.867 1016.02 247.461 1015.65 248.04C1015.29 248.612 1014.88 249.118 1014.42 249.558C1013.96 249.991 1013.37 250.497 1012.65 251.076H1016.43V251.912H1011.14V251.197ZM1017.47 251.197C1018.4 250.449 1019.13 249.837 1019.66 249.36C1020.19 248.876 1020.63 248.374 1020.99 247.853C1021.35 247.325 1021.54 246.808 1021.54 246.302C1021.54 245.825 1021.42 245.451 1021.19 245.18C1020.96 244.901 1020.59 244.762 1020.08 244.762C1019.58 244.762 1019.19 244.92 1018.91 245.235C1018.64 245.543 1018.49 245.957 1018.47 246.478H1017.5C1017.53 245.657 1017.78 245.022 1018.25 244.575C1018.72 244.128 1019.32 243.904 1020.06 243.904C1020.82 243.904 1021.42 244.113 1021.86 244.531C1022.3 244.949 1022.53 245.525 1022.53 246.258C1022.53 246.867 1022.34 247.461 1021.98 248.04C1021.62 248.612 1021.21 249.118 1020.75 249.558C1020.28 249.991 1019.69 250.497 1018.98 251.076H1022.76V251.912H1017.47V251.197Z" fill="#6B7084"/>
<path d="M25.1358 28.96V28.047H27.2038V36H26.1918V28.96H25.1358ZM28.9232 31.941C28.9232 30.6797 29.1285 29.697 29.5392 28.993C29.9499 28.2817 30.6685 27.926 31.6952 27.926C32.7145 27.926 33.4295 28.2817 33.8402 28.993C34.2509 29.697 34.4562 30.6797 34.4562 31.941C34.4562 33.2243 34.2509 34.2217 33.8402 34.933C33.4295 35.6443 32.7145 36 31.6952 36C30.6685 36 29.9499 35.6443 29.5392 34.933C29.1285 34.2217 28.9232 33.2243 28.9232 31.941ZM33.4662 31.941C33.4662 31.303 33.4222 30.764 33.3342 30.324C33.2535 29.8767 33.0812 29.5173 32.8172 29.246C32.5605 28.9747 32.1865 28.839 31.6952 28.839C31.1965 28.839 30.8152 28.9747 30.5512 29.246C30.2945 29.5173 30.1222 29.8767 30.0342 30.324C29.9535 30.764 29.9132 31.303 29.9132 31.941C29.9132 32.601 29.9535 33.1547 30.0342 33.602C30.1222 34.0493 30.2945 34.4087 30.5512 34.68C30.8152 34.9513 31.1965 35.087 31.6952 35.087C32.1865 35.087 32.5605 34.9513 32.8172 34.68C33.0812 34.4087 33.2535 34.0493 33.3342 33.602C33.4222 33.1547 33.4662 32.601 33.4662 31.941ZM35.8304 31.941C35.8304 30.6797 36.0358 29.697 36.4464 28.993C36.8571 28.2817 37.5758 27.926 38.6024 27.926C39.6218 27.926 40.3368 28.2817 40.7474 28.993C41.1581 29.697 41.3634 30.6797 41.3634 31.941C41.3634 33.2243 41.1581 34.2217 40.7474 34.933C40.3368 35.6443 39.6218 36 38.6024 36C37.5758 36 36.8571 35.6443 36.4464 34.933C36.0358 34.2217 35.8304 33.2243 35.8304 31.941ZM40.3734 31.941C40.3734 31.303 40.3294 30.764 40.2414 30.324C40.1608 29.8767 39.9884 29.5173 39.7244 29.246C39.4678 28.9747 39.0938 28.839 38.6024 28.839C38.1038 28.839 37.7224 28.9747 37.4584 29.246C37.2018 29.5173 37.0294 29.8767 36.9414 30.324C36.8608 30.764 36.8204 31.303 36.8204 31.941C36.8204 32.601 36.8608 33.1547 36.9414 33.602C37.0294 34.0493 37.2018 34.4087 37.4584 34.68C37.7224 34.9513 38.1038 35.087 38.6024 35.087C39.0938 35.087 39.4678 34.9513 39.7244 34.68C39.9884 34.4087 40.1608 34.0493 40.2414 33.602C40.3294 33.1547 40.3734 32.601 40.3734 31.941ZM43.9367 34.614L42.7047 37.573H42.0337L42.8367 34.614H43.9367ZM44.9183 31.941C44.9183 30.6797 45.1237 29.697 45.5343 28.993C45.945 28.2817 46.6637 27.926 47.6903 27.926C48.7097 27.926 49.4247 28.2817 49.8353 28.993C50.246 29.697 50.4513 30.6797 50.4513 31.941C50.4513 33.2243 50.246 34.2217 49.8353 34.933C49.4247 35.6443 48.7097 36 47.6903 36C46.6637 36 45.945 35.6443 45.5343 34.933C45.1237 34.2217 44.9183 33.2243 44.9183 31.941ZM49.4613 31.941C49.4613 31.303 49.4173 30.764 49.3293 30.324C49.2487 29.8767 49.0763 29.5173 48.8123 29.246C48.5557 28.9747 48.1817 28.839 47.6903 28.839C47.1917 28.839 46.8103 28.9747 46.5463 29.246C46.2897 29.5173 46.1173 29.8767 46.0293 30.324C45.9487 30.764 45.9083 31.303 45.9083 31.941C45.9083 32.601 45.9487 33.1547 46.0293 33.602C46.1173 34.0493 46.2897 34.4087 46.5463 34.68C46.8103 34.9513 47.1917 35.087 47.6903 35.087C48.1817 35.087 48.5557 34.9513 48.8123 34.68C49.0763 34.4087 49.2487 34.0493 49.3293 33.602C49.4173 33.1547 49.4613 32.601 49.4613 31.941ZM51.8256 31.941C51.8256 30.6797 52.0309 29.697 52.4416 28.993C52.8522 28.2817 53.5709 27.926 54.5976 27.926C55.6169 27.926 56.3319 28.2817 56.7426 28.993C57.1532 29.697 57.3586 30.6797 57.3586 31.941C57.3586 33.2243 57.1532 34.2217 56.7426 34.933C56.3319 35.6443 55.6169 36 54.5976 36C53.5709 36 52.8522 35.6443 52.4416 34.933C52.0309 34.2217 51.8256 33.2243 51.8256 31.941ZM56.3686 31.941C56.3686 31.303 56.3246 30.764 56.2366 30.324C56.1559 29.8767 55.9836 29.5173 55.7196 29.246C55.4629 28.9747 55.0889 28.839 54.5976 28.839C54.0989 28.839 53.7176 28.9747 53.4536 29.246C53.1969 29.5173 53.0246 29.8767 52.9366 30.324C52.8559 30.764 52.8156 31.303 52.8156 31.941C52.8156 32.601 52.8559 33.1547 52.9366 33.602C53.0246 34.0493 53.1969 34.4087 53.4536 34.68C53.7176 34.9513 54.0989 35.087 54.5976 35.087C55.0889 35.087 55.4629 34.9513 55.7196 34.68C55.9836 34.4087 56.1559 34.0493 56.2366 33.602C56.3246 33.1547 56.3686 32.601 56.3686 31.941ZM58.7328 31.941C58.7328 30.6797 58.9381 29.697 59.3488 28.993C59.7594 28.2817 60.4781 27.926 61.5048 27.926C62.5241 27.926 63.2391 28.2817 63.6498 28.993C64.0604 29.697 64.2658 30.6797 64.2658 31.941C64.2658 33.2243 64.0604 34.2217 63.6498 34.933C63.2391 35.6443 62.5241 36 61.5048 36C60.4781 36 59.7594 35.6443 59.3488 34.933C58.9381 34.2217 58.7328 33.2243 58.7328 31.941ZM63.2758 31.941C63.2758 31.303 63.2318 30.764 63.1438 30.324C63.0631 29.8767 62.8908 29.5173 62.6268 29.246C62.3701 28.9747 61.9961 28.839 61.5048 28.839C61.0061 28.839 60.6248 28.9747 60.3608 29.246C60.1041 29.5173 59.9318 29.8767 59.8438 30.324C59.7631 30.764 59.7228 31.303 59.7228 31.941C59.7228 32.601 59.7631 33.1547 59.8438 33.602C59.9318 34.0493 60.1041 34.4087 60.3608 34.68C60.6248 34.9513 61.0061 35.087 61.5048 35.087C61.9961 35.087 62.3701 34.9513 62.6268 34.68C62.8908 34.4087 63.0631 34.0493 63.1438 33.602C63.2318 33.1547 63.2758 32.601 63.2758 31.941ZM72.5766 32.051C72.8553 32.095 73.1083 32.2087 73.3356 32.392C73.5703 32.5753 73.7536 32.8027 73.8856 33.074C74.025 33.3453 74.0946 33.635 74.0946 33.943C74.0946 34.3317 73.9956 34.6837 73.7976 34.999C73.5996 35.307 73.31 35.5527 72.9286 35.736C72.5546 35.912 72.111 36 71.5976 36H68.7376V28.333H71.4876C72.0083 28.333 72.452 28.421 72.8186 28.597C73.1853 28.7657 73.4603 28.9967 73.6436 29.29C73.827 29.5833 73.9186 29.9133 73.9186 30.28C73.9186 30.7347 73.794 31.1123 73.5446 31.413C73.3026 31.7063 72.98 31.919 72.5766 32.051ZM69.7386 31.644H71.4216C71.891 31.644 72.254 31.534 72.5106 31.314C72.7673 31.094 72.8956 30.7897 72.8956 30.401C72.8956 30.0123 72.7673 29.708 72.5106 29.488C72.254 29.268 71.8836 29.158 71.3996 29.158H69.7386V31.644ZM71.5096 35.175C72.0083 35.175 72.397 35.0577 72.6756 34.823C72.9543 34.5883 73.0936 34.262 73.0936 33.844C73.0936 33.4187 72.947 33.085 72.6536 32.843C72.3603 32.5937 71.968 32.469 71.4766 32.469H69.7386V35.175H71.5096ZM80.0157 34.295H76.6717L76.0557 36H74.9997L77.7717 28.377H78.9267L81.6877 36H80.6317L80.0157 34.295ZM79.7297 33.481L78.3437 29.609L76.9577 33.481H79.7297ZM87.6148 28.333V29.147H85.5248V36H84.5238V29.147H82.4228V28.333H87.6148Z" fill="#6B7084"/>
<path d="M34.7206 76.828L31.6626 84H30.6506L33.7526 76.927H29.5066V76.069H34.7206V76.828ZM40.9014 76.916H37.0404V79.424C37.2091 79.1893 37.4584 78.9987 37.7884 78.852C38.1184 78.698 38.4741 78.621 38.8554 78.621C39.4641 78.621 39.9591 78.7493 40.3404 79.006C40.7218 79.2553 40.9931 79.5817 41.1544 79.985C41.3231 80.381 41.4074 80.8027 41.4074 81.25C41.4074 81.778 41.3084 82.251 41.1104 82.669C40.9124 83.087 40.6081 83.417 40.1974 83.659C39.7941 83.901 39.2918 84.022 38.6904 84.022C37.9204 84.022 37.2971 83.824 36.8204 83.428C36.3438 83.032 36.0541 82.504 35.9514 81.844H36.9304C37.0258 82.262 37.2274 82.5883 37.5354 82.823C37.8434 83.0577 38.2321 83.175 38.7014 83.175C39.2808 83.175 39.7171 83.0027 40.0104 82.658C40.3038 82.306 40.4504 81.844 40.4504 81.272C40.4504 80.7 40.3038 80.26 40.0104 79.952C39.7171 79.6367 39.2844 79.479 38.7124 79.479C38.3238 79.479 37.9828 79.5743 37.6894 79.765C37.4034 79.9483 37.1944 80.2013 37.0624 80.524H36.1164V76.036H40.9014V76.916ZM43.9367 82.614L42.7047 85.573H42.0337L42.8367 82.614H43.9367ZM44.9183 79.941C44.9183 78.6797 45.1237 77.697 45.5343 76.993C45.945 76.2817 46.6637 75.926 47.6903 75.926C48.7097 75.926 49.4247 76.2817 49.8353 76.993C50.246 77.697 50.4513 78.6797 50.4513 79.941C50.4513 81.2243 50.246 82.2217 49.8353 82.933C49.4247 83.6443 48.7097 84 47.6903 84C46.6637 84 45.945 83.6443 45.5343 82.933C45.1237 82.2217 44.9183 81.2243 44.9183 79.941ZM49.4613 79.941C49.4613 79.303 49.4173 78.764 49.3293 78.324C49.2487 77.8767 49.0763 77.5173 48.8123 77.246C48.5557 76.9747 48.1817 76.839 47.6903 76.839C47.1917 76.839 46.8103 76.9747 46.5463 77.246C46.2897 77.5173 46.1173 77.8767 46.0293 78.324C45.9487 78.764 45.9083 79.303 45.9083 79.941C45.9083 80.601 45.9487 81.1547 46.0293 81.602C46.1173 82.0493 46.2897 82.4087 46.5463 82.68C46.8103 82.9513 47.1917 83.087 47.6903 83.087C48.1817 83.087 48.5557 82.9513 48.8123 82.68C49.0763 82.4087 49.2487 82.0493 49.3293 81.602C49.4173 81.1547 49.4613 80.601 49.4613 79.941ZM51.8256 79.941C51.8256 78.6797 52.0309 77.697 52.4416 76.993C52.8522 76.2817 53.5709 75.926 54.5976 75.926C55.6169 75.926 56.3319 76.2817 56.7426 76.993C57.1532 77.697 57.3586 78.6797 57.3586 79.941C57.3586 81.2243 57.1532 82.2217 56.7426 82.933C56.3319 83.6443 55.6169 84 54.5976 84C53.5709 84 52.8522 83.6443 52.4416 82.933C52.0309 82.2217 51.8256 81.2243 51.8256 79.941ZM56.3686 79.941C56.3686 79.303 56.3246 78.764 56.2366 78.324C56.1559 77.8767 55.9836 77.5173 55.7196 77.246C55.4629 76.9747 55.0889 76.839 54.5976 76.839C54.0989 76.839 53.7176 76.9747 53.4536 77.246C53.1969 77.5173 53.0246 77.8767 52.9366 78.324C52.8559 78.764 52.8156 79.303 52.8156 79.941C52.8156 80.601 52.8559 81.1547 52.9366 81.602C53.0246 82.0493 53.1969 82.4087 53.4536 82.68C53.7176 82.9513 54.0989 83.087 54.5976 83.087C55.0889 83.087 55.4629 82.9513 55.7196 82.68C55.9836 82.4087 56.1559 82.0493 56.2366 81.602C56.3246 81.1547 56.3686 80.601 56.3686 79.941ZM58.7328 79.941C58.7328 78.6797 58.9381 77.697 59.3488 76.993C59.7594 76.2817 60.4781 75.926 61.5048 75.926C62.5241 75.926 63.2391 76.2817 63.6498 76.993C64.0604 77.697 64.2658 78.6797 64.2658 79.941C64.2658 81.2243 64.0604 82.2217 63.6498 82.933C63.2391 83.6443 62.5241 84 61.5048 84C60.4781 84 59.7594 83.6443 59.3488 82.933C58.9381 82.2217 58.7328 81.2243 58.7328 79.941ZM63.2758 79.941C63.2758 79.303 63.2318 78.764 63.1438 78.324C63.0631 77.8767 62.8908 77.5173 62.6268 77.246C62.3701 76.9747 61.9961 76.839 61.5048 76.839C61.0061 76.839 60.6248 76.9747 60.3608 77.246C60.1041 77.5173 59.9318 77.8767 59.8438 78.324C59.7631 78.764 59.7228 79.303 59.7228 79.941C59.7228 80.601 59.7631 81.1547 59.8438 81.602C59.9318 82.0493 60.1041 82.4087 60.3608 82.68C60.6248 82.9513 61.0061 83.087 61.5048 83.087C61.9961 83.087 62.3701 82.9513 62.6268 82.68C62.8908 82.4087 63.0631 82.0493 63.1438 81.602C63.2318 81.1547 63.2758 80.601 63.2758 79.941ZM72.5766 80.051C72.8553 80.095 73.1083 80.2087 73.3356 80.392C73.5703 80.5753 73.7536 80.8027 73.8856 81.074C74.025 81.3453 74.0946 81.635 74.0946 81.943C74.0946 82.3317 73.9956 82.6837 73.7976 82.999C73.5996 83.307 73.31 83.5527 72.9286 83.736C72.5546 83.912 72.111 84 71.5976 84H68.7376V76.333H71.4876C72.0083 76.333 72.452 76.421 72.8186 76.597C73.1853 76.7657 73.4603 76.9967 73.6436 77.29C73.827 77.5833 73.9186 77.9133 73.9186 78.28C73.9186 78.7347 73.794 79.1123 73.5446 79.413C73.3026 79.7063 72.98 79.919 72.5766 80.051ZM69.7386 79.644H71.4216C71.891 79.644 72.254 79.534 72.5106 79.314C72.7673 79.094 72.8956 78.7897 72.8956 78.401C72.8956 78.0123 72.7673 77.708 72.5106 77.488C72.254 77.268 71.8836 77.158 71.3996 77.158H69.7386V79.644ZM71.5096 83.175C72.0083 83.175 72.397 83.0577 72.6756 82.823C72.9543 82.5883 73.0936 82.262 73.0936 81.844C73.0936 81.4187 72.947 81.085 72.6536 80.843C72.3603 80.5937 71.968 80.469 71.4766 80.469H69.7386V83.175H71.5096ZM80.0157 82.295H76.6717L76.0557 84H74.9997L77.7717 76.377H78.9267L81.6877 84H80.6317L80.0157 82.295ZM79.7297 81.481L78.3437 77.609L76.9577 81.481H79.7297ZM87.6148 76.333V77.147H85.5248V84H84.5238V77.147H82.4228V76.333H87.6148Z" fill="#6B7084"/>
<path d="M33.9942 124.916H30.1332V127.424C30.3019 127.189 30.5512 126.999 30.8812 126.852C31.2112 126.698 31.5669 126.621 31.9482 126.621C32.5569 126.621 33.0519 126.749 33.4332 127.006C33.8145 127.255 34.0859 127.582 34.2472 127.985C34.4159 128.381 34.5002 128.803 34.5002 129.25C34.5002 129.778 34.4012 130.251 34.2032 130.669C34.0052 131.087 33.7009 131.417 33.2902 131.659C32.8869 131.901 32.3845 132.022 31.7832 132.022C31.0132 132.022 30.3899 131.824 29.9132 131.428C29.4365 131.032 29.1469 130.504 29.0442 129.844H30.0232C30.1185 130.262 30.3202 130.588 30.6282 130.823C30.9362 131.058 31.3249 131.175 31.7942 131.175C32.3735 131.175 32.8099 131.003 33.1032 130.658C33.3965 130.306 33.5432 129.844 33.5432 129.272C33.5432 128.7 33.3965 128.26 33.1032 127.952C32.8099 127.637 32.3772 127.479 31.8052 127.479C31.4165 127.479 31.0755 127.574 30.7822 127.765C30.4962 127.948 30.2872 128.201 30.1552 128.524H29.2092V124.036H33.9942V124.916ZM35.8304 127.941C35.8304 126.68 36.0358 125.697 36.4464 124.993C36.8571 124.282 37.5758 123.926 38.6024 123.926C39.6218 123.926 40.3368 124.282 40.7474 124.993C41.1581 125.697 41.3634 126.68 41.3634 127.941C41.3634 129.224 41.1581 130.222 40.7474 130.933C40.3368 131.644 39.6218 132 38.6024 132C37.5758 132 36.8571 131.644 36.4464 130.933C36.0358 130.222 35.8304 129.224 35.8304 127.941ZM40.3734 127.941C40.3734 127.303 40.3294 126.764 40.2414 126.324C40.1608 125.877 39.9884 125.517 39.7244 125.246C39.4678 124.975 39.0938 124.839 38.6024 124.839C38.1038 124.839 37.7224 124.975 37.4584 125.246C37.2018 125.517 37.0294 125.877 36.9414 126.324C36.8608 126.764 36.8204 127.303 36.8204 127.941C36.8204 128.601 36.8608 129.155 36.9414 129.602C37.0294 130.049 37.2018 130.409 37.4584 130.68C37.7224 130.951 38.1038 131.087 38.6024 131.087C39.0938 131.087 39.4678 130.951 39.7244 130.68C39.9884 130.409 40.1608 130.049 40.2414 129.602C40.3294 129.155 40.3734 128.601 40.3734 127.941ZM43.9367 130.614L42.7047 133.573H42.0337L42.8367 130.614H43.9367ZM44.9183 127.941C44.9183 126.68 45.1237 125.697 45.5343 124.993C45.945 124.282 46.6637 123.926 47.6903 123.926C48.7097 123.926 49.4247 124.282 49.8353 124.993C50.246 125.697 50.4513 126.68 50.4513 127.941C50.4513 129.224 50.246 130.222 49.8353 130.933C49.4247 131.644 48.7097 132 47.6903 132C46.6637 132 45.945 131.644 45.5343 130.933C45.1237 130.222 44.9183 129.224 44.9183 127.941ZM49.4613 127.941C49.4613 127.303 49.4173 126.764 49.3293 126.324C49.2487 125.877 49.0763 125.517 48.8123 125.246C48.5557 124.975 48.1817 124.839 47.6903 124.839C47.1917 124.839 46.8103 124.975 46.5463 125.246C46.2897 125.517 46.1173 125.877 46.0293 126.324C45.9487 126.764 45.9083 127.303 45.9083 127.941C45.9083 128.601 45.9487 129.155 46.0293 129.602C46.1173 130.049 46.2897 130.409 46.5463 130.68C46.8103 130.951 47.1917 131.087 47.6903 131.087C48.1817 131.087 48.5557 130.951 48.8123 130.68C49.0763 130.409 49.2487 130.049 49.3293 129.602C49.4173 129.155 49.4613 128.601 49.4613 127.941ZM51.8256 127.941C51.8256 126.68 52.0309 125.697 52.4416 124.993C52.8522 124.282 53.5709 123.926 54.5976 123.926C55.6169 123.926 56.3319 124.282 56.7426 124.993C57.1532 125.697 57.3586 126.68 57.3586 127.941C57.3586 129.224 57.1532 130.222 56.7426 130.933C56.3319 131.644 55.6169 132 54.5976 132C53.5709 132 52.8522 131.644 52.4416 130.933C52.0309 130.222 51.8256 129.224 51.8256 127.941ZM56.3686 127.941C56.3686 127.303 56.3246 126.764 56.2366 126.324C56.1559 125.877 55.9836 125.517 55.7196 125.246C55.4629 124.975 55.0889 124.839 54.5976 124.839C54.0989 124.839 53.7176 124.975 53.4536 125.246C53.1969 125.517 53.0246 125.877 52.9366 126.324C52.8559 126.764 52.8156 127.303 52.8156 127.941C52.8156 128.601 52.8559 129.155 52.9366 129.602C53.0246 130.049 53.1969 130.409 53.4536 130.68C53.7176 130.951 54.0989 131.087 54.5976 131.087C55.0889 131.087 55.4629 130.951 55.7196 130.68C55.9836 130.409 56.1559 130.049 56.2366 129.602C56.3246 129.155 56.3686 128.601 56.3686 127.941ZM58.7328 127.941C58.7328 126.68 58.9381 125.697 59.3488 124.993C59.7594 124.282 60.4781 123.926 61.5048 123.926C62.5241 123.926 63.2391 124.282 63.6498 124.993C64.0604 125.697 64.2658 126.68 64.2658 127.941C64.2658 129.224 64.0604 130.222 63.6498 130.933C63.2391 131.644 62.5241 132 61.5048 132C60.4781 132 59.7594 131.644 59.3488 130.933C58.9381 130.222 58.7328 129.224 58.7328 127.941ZM63.2758 127.941C63.2758 127.303 63.2318 126.764 63.1438 126.324C63.0631 125.877 62.8908 125.517 62.6268 125.246C62.3701 124.975 61.9961 124.839 61.5048 124.839C61.0061 124.839 60.6248 124.975 60.3608 125.246C60.1041 125.517 59.9318 125.877 59.8438 126.324C59.7631 126.764 59.7228 127.303 59.7228 127.941C59.7228 128.601 59.7631 129.155 59.8438 129.602C59.9318 130.049 60.1041 130.409 60.3608 130.68C60.6248 130.951 61.0061 131.087 61.5048 131.087C61.9961 131.087 62.3701 130.951 62.6268 130.68C62.8908 130.409 63.0631 130.049 63.1438 129.602C63.2318 129.155 63.2758 128.601 63.2758 127.941ZM72.5766 128.051C72.8553 128.095 73.1083 128.209 73.3356 128.392C73.5703 128.575 73.7536 128.803 73.8856 129.074C74.025 129.345 74.0946 129.635 74.0946 129.943C74.0946 130.332 73.9956 130.684 73.7976 130.999C73.5996 131.307 73.31 131.553 72.9286 131.736C72.5546 131.912 72.111 132 71.5976 132H68.7376V124.333H71.4876C72.0083 124.333 72.452 124.421 72.8186 124.597C73.1853 124.766 73.4603 124.997 73.6436 125.29C73.827 125.583 73.9186 125.913 73.9186 126.28C73.9186 126.735 73.794 127.112 73.5446 127.413C73.3026 127.706 72.98 127.919 72.5766 128.051ZM69.7386 127.644H71.4216C71.891 127.644 72.254 127.534 72.5106 127.314C72.7673 127.094 72.8956 126.79 72.8956 126.401C72.8956 126.012 72.7673 125.708 72.5106 125.488C72.254 125.268 71.8836 125.158 71.3996 125.158H69.7386V127.644ZM71.5096 131.175C72.0083 131.175 72.397 131.058 72.6756 130.823C72.9543 130.588 73.0936 130.262 73.0936 129.844C73.0936 129.419 72.947 129.085 72.6536 128.843C72.3603 128.594 71.968 128.469 71.4766 128.469H69.7386V131.175H71.5096ZM80.0157 130.295H76.6717L76.0557 132H74.9997L77.7717 124.377H78.9267L81.6877 132H80.6317L80.0157 130.295ZM79.7297 129.481L78.3437 125.609L76.9577 129.481H79.7297ZM87.6148 124.333V125.147H85.5248V132H84.5238V125.147H82.4228V124.333H87.6148Z" fill="#6B7084"/>
<path d="M29.3823 179.197C30.3136 178.449 31.0433 177.837 31.5713 177.36C32.0993 176.876 32.543 176.374 32.9023 175.853C33.269 175.325 33.4523 174.808 33.4523 174.302C33.4523 173.825 33.335 173.451 33.1003 173.18C32.873 172.901 32.5026 172.762 31.9893 172.762C31.4906 172.762 31.102 172.92 30.8233 173.235C30.552 173.543 30.4053 173.957 30.3833 174.478H29.4153C29.4446 173.657 29.694 173.022 30.1633 172.575C30.6326 172.128 31.2376 171.904 31.9783 171.904C32.7336 171.904 33.3313 172.113 33.7713 172.531C34.2186 172.949 34.4423 173.525 34.4423 174.258C34.4423 174.867 34.259 175.461 33.8923 176.04C33.533 176.612 33.1223 177.118 32.6603 177.558C32.1983 177.991 31.608 178.497 30.8893 179.076H34.6733V179.912H29.3823V179.197ZM40.9014 172.916H37.0404V175.424C37.2091 175.189 37.4584 174.999 37.7884 174.852C38.1184 174.698 38.4741 174.621 38.8554 174.621C39.4641 174.621 39.9591 174.749 40.3404 175.006C40.7218 175.255 40.9931 175.582 41.1544 175.985C41.3231 176.381 41.4074 176.803 41.4074 177.25C41.4074 177.778 41.3084 178.251 41.1104 178.669C40.9124 179.087 40.6081 179.417 40.1974 179.659C39.7941 179.901 39.2918 180.022 38.6904 180.022C37.9204 180.022 37.2971 179.824 36.8204 179.428C36.3438 179.032 36.0541 178.504 35.9514 177.844H36.9304C37.0258 178.262 37.2274 178.588 37.5354 178.823C37.8434 179.058 38.2321 179.175 38.7014 179.175C39.2808 179.175 39.7171 179.003 40.0104 178.658C40.3038 178.306 40.4504 177.844 40.4504 177.272C40.4504 176.7 40.3038 176.26 40.0104 175.952C39.7171 175.637 39.2844 175.479 38.7124 175.479C38.3238 175.479 37.9828 175.574 37.6894 175.765C37.4034 175.948 37.1944 176.201 37.0624 176.524H36.1164V172.036H40.9014V172.916ZM43.9367 178.614L42.7047 181.573H42.0337L42.8367 178.614H43.9367ZM44.9183 175.941C44.9183 174.68 45.1237 173.697 45.5343 172.993C45.945 172.282 46.6637 171.926 47.6903 171.926C48.7097 171.926 49.4247 172.282 49.8353 172.993C50.246 173.697 50.4513 174.68 50.4513 175.941C50.4513 177.224 50.246 178.222 49.8353 178.933C49.4247 179.644 48.7097 180 47.6903 180C46.6637 180 45.945 179.644 45.5343 178.933C45.1237 178.222 44.9183 177.224 44.9183 175.941ZM49.4613 175.941C49.4613 175.303 49.4173 174.764 49.3293 174.324C49.2487 173.877 49.0763 173.517 48.8123 173.246C48.5557 172.975 48.1817 172.839 47.6903 172.839C47.1917 172.839 46.8103 172.975 46.5463 173.246C46.2897 173.517 46.1173 173.877 46.0293 174.324C45.9487 174.764 45.9083 175.303 45.9083 175.941C45.9083 176.601 45.9487 177.155 46.0293 177.602C46.1173 178.049 46.2897 178.409 46.5463 178.68C46.8103 178.951 47.1917 179.087 47.6903 179.087C48.1817 179.087 48.5557 178.951 48.8123 178.68C49.0763 178.409 49.2487 178.049 49.3293 177.602C49.4173 177.155 49.4613 176.601 49.4613 175.941ZM51.8256 175.941C51.8256 174.68 52.0309 173.697 52.4416 172.993C52.8522 172.282 53.5709 171.926 54.5976 171.926C55.6169 171.926 56.3319 172.282 56.7426 172.993C57.1532 173.697 57.3586 174.68 57.3586 175.941C57.3586 177.224 57.1532 178.222 56.7426 178.933C56.3319 179.644 55.6169 180 54.5976 180C53.5709 180 52.8522 179.644 52.4416 178.933C52.0309 178.222 51.8256 177.224 51.8256 175.941ZM56.3686 175.941C56.3686 175.303 56.3246 174.764 56.2366 174.324C56.1559 173.877 55.9836 173.517 55.7196 173.246C55.4629 172.975 55.0889 172.839 54.5976 172.839C54.0989 172.839 53.7176 172.975 53.4536 173.246C53.1969 173.517 53.0246 173.877 52.9366 174.324C52.8559 174.764 52.8156 175.303 52.8156 175.941C52.8156 176.601 52.8559 177.155 52.9366 177.602C53.0246 178.049 53.1969 178.409 53.4536 178.68C53.7176 178.951 54.0989 179.087 54.5976 179.087C55.0889 179.087 55.4629 178.951 55.7196 178.68C55.9836 178.409 56.1559 178.049 56.2366 177.602C56.3246 177.155 56.3686 176.601 56.3686 175.941ZM58.7328 175.941C58.7328 174.68 58.9381 173.697 59.3488 172.993C59.7594 172.282 60.4781 171.926 61.5048 171.926C62.5241 171.926 63.2391 172.282 63.6498 172.993C64.0604 173.697 64.2658 174.68 64.2658 175.941C64.2658 177.224 64.0604 178.222 63.6498 178.933C63.2391 179.644 62.5241 180 61.5048 180C60.4781 180 59.7594 179.644 59.3488 178.933C58.9381 178.222 58.7328 177.224 58.7328 175.941ZM63.2758 175.941C63.2758 175.303 63.2318 174.764 63.1438 174.324C63.0631 173.877 62.8908 173.517 62.6268 173.246C62.3701 172.975 61.9961 172.839 61.5048 172.839C61.0061 172.839 60.6248 172.975 60.3608 173.246C60.1041 173.517 59.9318 173.877 59.8438 174.324C59.7631 174.764 59.7228 175.303 59.7228 175.941C59.7228 176.601 59.7631 177.155 59.8438 177.602C59.9318 178.049 60.1041 178.409 60.3608 178.68C60.6248 178.951 61.0061 179.087 61.5048 179.087C61.9961 179.087 62.3701 178.951 62.6268 178.68C62.8908 178.409 63.0631 178.049 63.1438 177.602C63.2318 177.155 63.2758 176.601 63.2758 175.941ZM72.5766 176.051C72.8553 176.095 73.1083 176.209 73.3356 176.392C73.5703 176.575 73.7536 176.803 73.8856 177.074C74.025 177.345 74.0946 177.635 74.0946 177.943C74.0946 178.332 73.9956 178.684 73.7976 178.999C73.5996 179.307 73.31 179.553 72.9286 179.736C72.5546 179.912 72.111 180 71.5976 180H68.7376V172.333H71.4876C72.0083 172.333 72.452 172.421 72.8186 172.597C73.1853 172.766 73.4603 172.997 73.6436 173.29C73.827 173.583 73.9186 173.913 73.9186 174.28C73.9186 174.735 73.794 175.112 73.5446 175.413C73.3026 175.706 72.98 175.919 72.5766 176.051ZM69.7386 175.644H71.4216C71.891 175.644 72.254 175.534 72.5106 175.314C72.7673 175.094 72.8956 174.79 72.8956 174.401C72.8956 174.012 72.7673 173.708 72.5106 173.488C72.254 173.268 71.8836 173.158 71.3996 173.158H69.7386V175.644ZM71.5096 179.175C72.0083 179.175 72.397 179.058 72.6756 178.823C72.9543 178.588 73.0936 178.262 73.0936 177.844C73.0936 177.419 72.947 177.085 72.6536 176.843C72.3603 176.594 71.968 176.469 71.4766 176.469H69.7386V179.175H71.5096ZM80.0157 178.295H76.6717L76.0557 180H74.9997L77.7717 172.377H78.9267L81.6877 180H80.6317L80.0157 178.295ZM79.7297 177.481L78.3437 173.609L76.9577 177.481H79.7297ZM87.6148 172.333V173.147H85.5248V180H84.5238V173.147H82.4228V172.333H87.6148Z" fill="#6B7084"/>
<path d="M58.7328 223.941C58.7328 222.68 58.9381 221.697 59.3488 220.993C59.7594 220.282 60.4781 219.926 61.5048 219.926C62.5241 219.926 63.2391 220.282 63.6498 220.993C64.0604 221.697 64.2658 222.68 64.2658 223.941C64.2658 225.224 64.0604 226.222 63.6498 226.933C63.2391 227.644 62.5241 228 61.5048 228C60.4781 228 59.7594 227.644 59.3488 226.933C58.9381 226.222 58.7328 225.224 58.7328 223.941ZM63.2758 223.941C63.2758 223.303 63.2318 222.764 63.1438 222.324C63.0631 221.877 62.8908 221.517 62.6268 221.246C62.3701 220.975 61.9961 220.839 61.5048 220.839C61.0061 220.839 60.6248 220.975 60.3608 221.246C60.1041 221.517 59.9318 221.877 59.8438 222.324C59.7631 222.764 59.7228 223.303 59.7228 223.941C59.7228 224.601 59.7631 225.155 59.8438 225.602C59.9318 226.049 60.1041 226.409 60.3608 226.68C60.6248 226.951 61.0061 227.087 61.5048 227.087C61.9961 227.087 62.3701 226.951 62.6268 226.68C62.8908 226.409 63.0631 226.049 63.1438 225.602C63.2318 225.155 63.2758 224.601 63.2758 223.941ZM72.5766 224.051C72.8553 224.095 73.1083 224.209 73.3356 224.392C73.5703 224.575 73.7536 224.803 73.8856 225.074C74.025 225.345 74.0946 225.635 74.0946 225.943C74.0946 226.332 73.9956 226.684 73.7976 226.999C73.5996 227.307 73.31 227.553 72.9286 227.736C72.5546 227.912 72.111 228 71.5976 228H68.7376V220.333H71.4876C72.0083 220.333 72.452 220.421 72.8186 220.597C73.1853 220.766 73.4603 220.997 73.6436 221.29C73.827 221.583 73.9186 221.913 73.9186 222.28C73.9186 222.735 73.794 223.112 73.5446 223.413C73.3026 223.706 72.98 223.919 72.5766 224.051ZM69.7386 223.644H71.4216C71.891 223.644 72.254 223.534 72.5106 223.314C72.7673 223.094 72.8956 222.79 72.8956 222.401C72.8956 222.012 72.7673 221.708 72.5106 221.488C72.254 221.268 71.8836 221.158 71.3996 221.158H69.7386V223.644ZM71.5096 227.175C72.0083 227.175 72.397 227.058 72.6756 226.823C72.9543 226.588 73.0936 226.262 73.0936 225.844C73.0936 225.419 72.947 225.085 72.6536 224.843C72.3603 224.594 71.968 224.469 71.4766 224.469H69.7386V227.175H71.5096ZM80.0157 226.295H76.6717L76.0557 228H74.9997L77.7717 220.377H78.9267L81.6877 228H80.6317L80.0157 226.295ZM79.7297 225.481L78.3437 221.609L76.9577 225.481H79.7297ZM87.6148 220.333V221.147H85.5248V228H84.5238V221.147H82.4228V220.333H87.6148Z" fill="#6B7084"/>
<rect x="96.5" y="24.5" width="947" height="207" rx="7.5" stroke="url(#paint0_linear_945_9392)"/>
<g clip-path="url(#clip0_945_9392)">
<rect opacity="0.5" x="96" y="24" width="79" height="208" fill="url(#paint1_linear_945_9392)"/>
<rect opacity="0.5" x="254" y="24" width="79" height="208" fill="url(#paint2_linear_945_9392)"/>
<rect opacity="0.5" x="412" y="24" width="79" height="208" fill="url(#paint3_linear_945_9392)"/>
<rect opacity="0.5" x="570" y="24" width="79" height="208" fill="url(#paint4_linear_945_9392)"/>
<rect opacity="0.5" x="728" y="24" width="79" height="208" fill="url(#paint5_linear_945_9392)"/>
<rect opacity="0.5" x="886" y="24" width="79" height="208" fill="url(#paint6_linear_945_9392)"/>
</g>
<path opacity="0.7" d="M221.649 109.402C155.25 109.402 96 126.986 96 126.986V232H1005V76.3461C993.564 74.0571 979.917 71.9479 964.469 70.6788C876.652 63.4646 864.395 116.131 787.25 116.131C730.585 116.131 726.671 83.2229 651.116 80.2233C575.562 77.2236 541.48 152.795 419.681 151.943C328.439 151.305 272.96 109.402 221.649 109.402Z" fill="url(#paint7_linear_945_9392)"/>
<path d="M97 126.889C97 126.889 154.764 109.426 221.27 109.426C276.621 109.426 328.234 151.354 419.624 151.993C541.621 152.845 575.758 77.228 651.436 80.2295C727.113 83.231 731.033 116.159 787.79 116.159C865.061 116.159 877.338 63.4607 965.297 70.6792C983.939 72.2091 1004 76.5148 1004 76.5148" stroke="#AAA8F7" stroke-width="2" stroke-linecap="round"/>
<circle cx="136" cy="118" r="4" fill="#5F5CF1"/>
<circle cx="215" cy="109" r="4" fill="#5F5CF1"/>
<circle cx="294" cy="126" r="4" fill="#5F5CF1"/>
<circle cx="373" cy="148" r="4" fill="#5F5CF1"/>
<circle cx="452" cy="150" r="4" fill="#5F5CF1"/>
<circle cx="531" cy="127" r="4" fill="#5F5CF1"/>
<circle cx="610" cy="87" r="4" fill="#5F5CF1"/>
<circle cx="689" cy="85" r="4" fill="#5F5CF1"/>
<circle cx="768" cy="114" r="4" fill="#5F5CF1"/>
<rect x="846" y="24" width="2" height="208" fill="#AAA8F7"/>
<circle cx="847" cy="104" r="6" fill="#423EEE"/>
<circle cx="926" cy="72" r="4" fill="#5F5CF1"/>
<circle cx="1005" cy="76" r="4" fill="#5F5CF1"/>
<g filter="url(#filter0_dd_945_9392)">
<rect x="802" y="38" width="93" height="52" rx="4" fill="#F4F6F8"/>
<path d="M816.208 50.333V55.998C816.208 56.6287 816.014 57.1347 815.625 57.516C815.236 57.89 814.723 58.077 814.085 58.077C813.44 58.077 812.923 57.8863 812.534 57.505C812.145 57.1163 811.951 56.5883 811.951 55.921H812.952C812.959 56.295 813.055 56.5993 813.238 56.834C813.429 57.0687 813.711 57.186 814.085 57.186C814.459 57.186 814.738 57.076 814.921 56.856C815.104 56.6287 815.196 56.3427 815.196 55.998V50.333H816.208ZM823.526 51.972V58H822.525V57.109C822.334 57.417 822.067 57.659 821.722 57.835C821.385 58.0037 821.011 58.088 820.6 58.088C820.131 58.088 819.709 57.9927 819.335 57.802C818.961 57.604 818.664 57.3107 818.444 56.922C818.231 56.5333 818.125 56.0603 818.125 55.503V51.972H819.115V55.371C819.115 55.965 819.265 56.4233 819.566 56.746C819.867 57.0613 820.277 57.219 820.798 57.219C821.333 57.219 821.755 57.054 822.063 56.724C822.371 56.394 822.525 55.9137 822.525 55.283V51.972H823.526ZM828.153 51.862C828.886 51.862 829.48 52.0857 829.935 52.533C830.39 52.973 830.617 53.611 830.617 54.447V58H829.627V54.59C829.627 53.9887 829.477 53.5303 829.176 53.215C828.875 52.8923 828.465 52.731 827.944 52.731C827.416 52.731 826.994 52.896 826.679 53.226C826.371 53.556 826.217 54.0363 826.217 54.667V58H825.216V51.972H826.217V52.83C826.415 52.522 826.683 52.2837 827.02 52.115C827.365 51.9463 827.742 51.862 828.153 51.862ZM837.752 54.755C837.752 54.9457 837.741 55.1473 837.719 55.36H832.901C832.938 55.954 833.14 56.4197 833.506 56.757C833.88 57.087 834.331 57.252 834.859 57.252C835.292 57.252 835.651 57.153 835.937 56.955C836.231 56.7497 836.436 56.4783 836.553 56.141H837.631C837.47 56.7203 837.147 57.1933 836.663 57.56C836.179 57.9193 835.578 58.099 834.859 58.099C834.287 58.099 833.774 57.9707 833.319 57.714C832.872 57.4573 832.52 57.0943 832.263 56.625C832.007 56.1483 831.878 55.5983 831.878 54.975C831.878 54.3517 832.003 53.8053 832.252 53.336C832.502 52.8667 832.85 52.5073 833.297 52.258C833.752 52.0013 834.273 51.873 834.859 51.873C835.431 51.873 835.937 51.9977 836.377 52.247C836.817 52.4963 837.155 52.841 837.389 53.281C837.631 53.7137 837.752 54.205 837.752 54.755ZM836.718 54.546C836.718 54.1647 836.634 53.8383 836.465 53.567C836.297 53.2883 836.066 53.0793 835.772 52.94C835.486 52.7933 835.167 52.72 834.815 52.72C834.309 52.72 833.877 52.8813 833.517 53.204C833.165 53.5267 832.964 53.974 832.912 54.546H836.718ZM841.72 57.197C842.652 56.449 843.381 55.8367 843.909 55.36C844.437 54.876 844.881 54.3737 845.24 53.853C845.607 53.325 845.79 52.808 845.79 52.302C845.79 51.8253 845.673 51.4513 845.438 51.18C845.211 50.9013 844.841 50.762 844.327 50.762C843.829 50.762 843.44 50.9197 843.161 51.235C842.89 51.543 842.743 51.9573 842.721 52.478H841.753C841.783 51.6567 842.032 51.0223 842.501 50.575C842.971 50.1277 843.576 49.904 844.316 49.904C845.072 49.904 845.669 50.113 846.109 50.531C846.557 50.949 846.78 51.5247 846.78 52.258C846.78 52.8667 846.597 53.4607 846.23 54.04C845.871 54.612 845.46 55.118 844.998 55.558C844.536 55.9907 843.946 56.4967 843.227 57.076H847.011V57.912H841.72V57.197ZM848.146 52.049C848.198 51.3743 848.458 50.8463 848.927 50.465C849.397 50.0837 850.005 49.893 850.753 49.893C851.252 49.893 851.681 49.9847 852.04 50.168C852.407 50.344 852.682 50.586 852.865 50.894C853.056 51.202 853.151 51.5503 853.151 51.939C853.151 52.3937 853.019 52.786 852.755 53.116C852.499 53.446 852.161 53.6587 851.743 53.754V53.809C852.22 53.9263 852.598 54.1573 852.876 54.502C853.155 54.8467 853.294 55.2977 853.294 55.855C853.294 56.273 853.199 56.6507 853.008 56.988C852.818 57.318 852.532 57.5783 852.15 57.769C851.769 57.9597 851.311 58.055 850.775 58.055C849.998 58.055 849.36 57.8533 848.861 57.45C848.363 57.0393 848.084 56.46 848.025 55.712H848.993C849.045 56.152 849.224 56.5113 849.532 56.79C849.84 57.0687 850.251 57.208 850.764 57.208C851.278 57.208 851.666 57.076 851.93 56.812C852.202 56.5407 852.337 56.1923 852.337 55.767C852.337 55.217 852.154 54.821 851.787 54.579C851.421 54.337 850.867 54.216 850.126 54.216H849.873V53.38H850.137C850.812 53.3727 851.322 53.2627 851.666 53.05C852.011 52.83 852.183 52.4927 852.183 52.038C852.183 51.6493 852.055 51.3377 851.798 51.103C851.549 50.8683 851.19 50.751 850.72 50.751C850.266 50.751 849.899 50.8683 849.62 51.103C849.342 51.3377 849.177 51.653 849.125 52.049H848.146ZM855.845 56.614L854.613 59.573H853.942L854.745 56.614H855.845ZM859.638 57.197C860.569 56.449 861.299 55.8367 861.827 55.36C862.355 54.876 862.799 54.3737 863.158 53.853C863.525 53.325 863.708 52.808 863.708 52.302C863.708 51.8253 863.591 51.4513 863.356 51.18C863.129 50.9013 862.758 50.762 862.245 50.762C861.746 50.762 861.358 50.9197 861.079 51.235C860.808 51.543 860.661 51.9573 860.639 52.478H859.671C859.7 51.6567 859.95 51.0223 860.419 50.575C860.888 50.1277 861.493 49.904 862.234 49.904C862.989 49.904 863.587 50.113 864.027 50.531C864.474 50.949 864.698 51.5247 864.698 52.258C864.698 52.8667 864.515 53.4607 864.148 54.04C863.789 54.612 863.378 55.118 862.916 55.558C862.454 55.9907 861.864 56.4967 861.145 57.076H864.929V57.912H859.638V57.197ZM866.086 53.941C866.086 52.6797 866.292 51.697 866.702 50.993C867.113 50.2817 867.832 49.926 868.858 49.926C869.878 49.926 870.593 50.2817 871.003 50.993C871.414 51.697 871.619 52.6797 871.619 53.941C871.619 55.2243 871.414 56.2217 871.003 56.933C870.593 57.6443 869.878 58 868.858 58C867.832 58 867.113 57.6443 866.702 56.933C866.292 56.2217 866.086 55.2243 866.086 53.941ZM870.629 53.941C870.629 53.303 870.585 52.764 870.497 52.324C870.417 51.8767 870.244 51.5173 869.98 51.246C869.724 50.9747 869.35 50.839 868.858 50.839C868.36 50.839 867.978 50.9747 867.714 51.246C867.458 51.5173 867.285 51.8767 867.197 52.324C867.117 52.764 867.076 53.303 867.076 53.941C867.076 54.601 867.117 55.1547 867.197 55.602C867.285 56.0493 867.458 56.4087 867.714 56.68C867.978 56.9513 868.36 57.087 868.858 57.087C869.35 57.087 869.724 56.9513 869.98 56.68C870.244 56.4087 870.417 56.0493 870.497 55.602C870.585 55.1547 870.629 54.601 870.629 53.941ZM872.873 57.197C873.804 56.449 874.534 55.8367 875.062 55.36C875.59 54.876 876.033 54.3737 876.393 53.853C876.759 53.325 876.943 52.808 876.943 52.302C876.943 51.8253 876.825 51.4513 876.591 51.18C876.363 50.9013 875.993 50.762 875.48 50.762C874.981 50.762 874.592 50.9197 874.314 51.235C874.042 51.543 873.896 51.9573 873.874 52.478H872.906C872.935 51.6567 873.184 51.0223 873.654 50.575C874.123 50.1277 874.728 49.904 875.469 49.904C876.224 49.904 876.822 50.113 877.262 50.531C877.709 50.949 877.933 51.5247 877.933 52.258C877.933 52.8667 877.749 53.4607 877.383 54.04C877.023 54.612 876.613 55.118 876.151 55.558C875.689 55.9907 875.098 56.4967 874.38 57.076H878.164V57.912H872.873V57.197ZM879.2 57.197C880.131 56.449 880.861 55.8367 881.389 55.36C881.917 54.876 882.36 54.3737 882.72 53.853C883.086 53.325 883.27 52.808 883.27 52.302C883.27 51.8253 883.152 51.4513 882.918 51.18C882.69 50.9013 882.32 50.762 881.807 50.762C881.308 50.762 880.919 50.9197 880.641 51.235C880.369 51.543 880.223 51.9573 880.201 52.478H879.233C879.262 51.6567 879.511 51.0223 879.981 50.575C880.45 50.1277 881.055 49.904 881.796 49.904C882.551 49.904 883.149 50.113 883.589 50.531C884.036 50.949 884.26 51.5247 884.26 52.258C884.26 52.8667 884.076 53.4607 883.71 54.04C883.35 54.612 882.94 55.118 882.478 55.558C882.016 55.9907 881.425 56.4967 880.707 57.076H884.491V57.912H879.2V57.197Z" fill="#6B7084"/>
<path d="M816.034 69.342C815.941 68.95 815.777 68.656 815.544 68.46C815.32 68.264 814.993 68.166 814.564 68.166C813.92 68.166 813.444 68.4273 813.136 68.95C812.837 69.4633 812.683 70.3033 812.674 71.47C812.898 71.0967 813.225 70.8073 813.654 70.602C814.083 70.3873 814.55 70.28 815.054 70.28C815.661 70.28 816.197 70.4107 816.664 70.672C817.131 70.9333 817.495 71.316 817.756 71.82C818.017 72.3147 818.148 72.912 818.148 73.612C818.148 74.2747 818.013 74.8673 817.742 75.39C817.481 75.9033 817.093 76.3047 816.58 76.594C816.067 76.8833 815.455 77.028 814.746 77.028C813.775 77.028 813.01 76.8133 812.45 76.384C811.899 75.9547 811.512 75.3573 811.288 74.592C811.073 73.8173 810.966 72.8653 810.966 71.736C810.966 70.028 811.26 68.74 811.848 67.872C812.436 66.9947 813.365 66.556 814.634 66.556C815.614 66.556 816.375 66.822 816.916 67.354C817.457 67.886 817.77 68.5487 817.854 69.342H816.034ZM814.606 71.89C814.111 71.89 813.696 72.0347 813.36 72.324C813.024 72.6133 812.856 73.0333 812.856 73.584C812.856 74.1347 813.01 74.5687 813.318 74.886C813.635 75.2033 814.079 75.362 814.648 75.362C815.152 75.362 815.549 75.208 815.838 74.9C816.137 74.592 816.286 74.1767 816.286 73.654C816.286 73.1127 816.141 72.6833 815.852 72.366C815.572 72.0487 815.157 71.89 814.606 71.89ZM826.193 68.278L822.469 77H820.481L824.233 68.502H819.445V66.822H826.193V68.278ZM829.733 74.942L828.095 78.876H826.835L827.745 74.942H829.733ZM830.922 71.764C830.922 70.1493 831.211 68.8847 831.79 67.97C832.378 67.0553 833.348 66.598 834.702 66.598C836.055 66.598 837.021 67.0553 837.6 67.97C838.188 68.8847 838.482 70.1493 838.482 71.764C838.482 73.388 838.188 74.662 837.6 75.586C837.021 76.51 836.055 76.972 834.702 76.972C833.348 76.972 832.378 76.51 831.79 75.586C831.211 74.662 830.922 73.388 830.922 71.764ZM836.55 71.764C836.55 71.0733 836.503 70.4947 836.41 70.028C836.326 69.552 836.148 69.1647 835.878 68.866C835.616 68.5673 835.224 68.418 834.702 68.418C834.179 68.418 833.782 68.5673 833.512 68.866C833.25 69.1647 833.073 69.552 832.98 70.028C832.896 70.4947 832.854 71.0733 832.854 71.764C832.854 72.4733 832.896 73.0707 832.98 73.556C833.064 74.032 833.241 74.4193 833.512 74.718C833.782 75.0073 834.179 75.152 834.702 75.152C835.224 75.152 835.621 75.0073 835.892 74.718C836.162 74.4193 836.34 74.032 836.424 73.556C836.508 73.0707 836.55 72.4733 836.55 71.764ZM840 69.482C840.047 68.5487 840.374 67.83 840.98 67.326C841.596 66.8127 842.404 66.556 843.402 66.556C844.084 66.556 844.667 66.6773 845.152 66.92C845.638 67.1533 846.002 67.4753 846.244 67.886C846.496 68.2873 846.622 68.7447 846.622 69.258C846.622 69.846 846.468 70.3453 846.16 70.756C845.862 71.1573 845.502 71.428 845.082 71.568V71.624C845.624 71.792 846.044 72.0907 846.342 72.52C846.65 72.9493 846.804 73.5 846.804 74.172C846.804 74.732 846.674 75.2313 846.412 75.67C846.16 76.1087 845.782 76.454 845.278 76.706C844.784 76.9487 844.186 77.07 843.486 77.07C842.432 77.07 841.573 76.804 840.91 76.272C840.248 75.74 839.898 74.956 839.86 73.92H841.764C841.783 74.3773 841.937 74.746 842.226 75.026C842.525 75.2967 842.931 75.432 843.444 75.432C843.92 75.432 844.284 75.3013 844.536 75.04C844.798 74.7693 844.928 74.424 844.928 74.004C844.928 73.444 844.751 73.0427 844.396 72.8C844.042 72.5573 843.491 72.436 842.744 72.436H842.338V70.826H842.744C844.07 70.826 844.732 70.3827 844.732 69.496C844.732 69.0947 844.611 68.782 844.368 68.558C844.135 68.334 843.794 68.222 843.346 68.222C842.908 68.222 842.567 68.3433 842.324 68.586C842.091 68.8193 841.956 69.118 841.918 69.482H840ZM848.969 74.788C849.865 74.0413 850.579 73.4207 851.111 72.926C851.643 72.422 852.087 71.8993 852.441 71.358C852.796 70.8167 852.973 70.2847 852.973 69.762C852.973 69.286 852.861 68.9127 852.637 68.642C852.413 68.3713 852.068 68.236 851.601 68.236C851.135 68.236 850.775 68.3947 850.523 68.712C850.271 69.02 850.141 69.4447 850.131 69.986H848.227C848.265 68.866 848.596 68.0167 849.221 67.438C849.856 66.8593 850.659 66.57 851.629 66.57C852.693 66.57 853.51 66.8547 854.079 67.424C854.649 67.984 854.933 68.726 854.933 69.65C854.933 70.378 854.737 71.0733 854.345 71.736C853.953 72.3987 853.505 72.9773 853.001 73.472C852.497 73.9573 851.839 74.5453 851.027 75.236H855.157V76.86H848.241V75.404L848.969 74.788ZM865.496 71.988C866.047 72.0907 866.5 72.366 866.854 72.814C867.209 73.262 867.386 73.7753 867.386 74.354C867.386 74.8767 867.256 75.3387 866.994 75.74C866.742 76.132 866.374 76.44 865.888 76.664C865.403 76.888 864.829 77 864.166 77H859.952V67.228H863.984C864.647 67.228 865.216 67.3353 865.692 67.55C866.178 67.7647 866.542 68.0633 866.784 68.446C867.036 68.8287 867.162 69.2627 867.162 69.748C867.162 70.3173 867.008 70.7933 866.7 71.176C866.402 71.5587 866 71.8293 865.496 71.988ZM861.912 71.26H863.704C864.171 71.26 864.53 71.1573 864.782 70.952C865.034 70.7373 865.16 70.434 865.16 70.042C865.16 69.65 865.034 69.3467 864.782 69.132C864.53 68.9173 864.171 68.81 863.704 68.81H861.912V71.26ZM863.886 75.404C864.362 75.404 864.731 75.292 864.992 75.068C865.263 74.844 865.398 74.5267 865.398 74.116C865.398 73.696 865.258 73.3693 864.978 73.136C864.698 72.8933 864.32 72.772 863.844 72.772H861.912V75.404H863.886ZM874.94 75.138H871.048L870.404 77H868.346L871.86 67.214H874.142L877.656 77H875.584L874.94 75.138ZM874.408 73.57L872.994 69.482L871.58 73.57H874.408ZM885.62 67.228V68.81H883.016V77H881.056V68.81H878.452V67.228H885.62Z" fill="#1D1F25"/>
</g>
<defs>
<filter id="filter0_dd_945_9392" x="795" y="33" width="107" height="66" filterUnits="userSpaceOnUse" color-interpolation-filters="sRGB">
<feFlood flood-opacity="0" result="BackgroundImageFix"/>
<feColorMatrix in="SourceAlpha" type="matrix" values="0 0 0 0 0 0 0 0 0 0 0 0 0 0 0 0 0 0 127 0" result="hardAlpha"/>
<feOffset dy="0.4"/>
<feGaussianBlur stdDeviation="0.75"/>
<feComposite in2="hardAlpha" operator="out"/>
<feColorMatrix type="matrix" values="0 0 0 0 0.258824 0 0 0 0 0.270588 0 0 0 0 0.321569 0 0 0 0.02 0"/>
<feBlend mode="multiply" in2="BackgroundImageFix" result="effect1_dropShadow_945_9392"/>
<feColorMatrix in="SourceAlpha" type="matrix" values="0 0 0 0 0 0 0 0 0 0 0 0 0 0 0 0 0 0 127 0" result="hardAlpha"/>
<feMorphology radius="1" operator="erode" in="SourceAlpha" result="effect2_dropShadow_945_9392"/>
<feOffset dy="2"/>
<feGaussianBlur stdDeviation="4"/>
<feComposite in2="hardAlpha" operator="out"/>
<feColorMatrix type="matrix" values="0 0 0 0 0.258824 0 0 0 0 0.270588 0 0 0 0 0.321569 0 0 0 0.08 0"/>
<feBlend mode="multiply" in2="effect1_dropShadow_945_9392" result="effect2_dropShadow_945_9392"/>
<feBlend mode="normal" in="SourceGraphic" in2="effect2_dropShadow_945_9392" result="shape"/>
</filter>
<linearGradient id="paint0_linear_945_9392" x1="570" y1="24" x2="570" y2="232" gradientUnits="userSpaceOnUse">
<stop offset="0.0572917" stop-color="#ECEFFD" stop-opacity="0"/>
<stop offset="1" stop-color="#ECEFFD"/>
</linearGradient>
<linearGradient id="paint1_linear_945_9392" x1="135.5" y1="24" x2="135.5" y2="232" gradientUnits="userSpaceOnUse">
<stop stop-color="#E1E3F7" stop-opacity="0"/>
<stop offset="1" stop-color="#E1E3F7" stop-opacity="0.5"/>
</linearGradient>
<linearGradient id="paint2_linear_945_9392" x1="293.5" y1="24" x2="293.5" y2="232" gradientUnits="userSpaceOnUse">
<stop stop-color="#E1E3F7" stop-opacity="0"/>
<stop offset="1" stop-color="#E1E3F7" stop-opacity="0.5"/>
</linearGradient>
<linearGradient id="paint3_linear_945_9392" x1="451.5" y1="24" x2="451.5" y2="232" gradientUnits="userSpaceOnUse">
<stop stop-color="#E1E3F7" stop-opacity="0"/>
<stop offset="1" stop-color="#E1E3F7" stop-opacity="0.5"/>
</linearGradient>
<linearGradient id="paint4_linear_945_9392" x1="609.5" y1="24" x2="609.5" y2="232" gradientUnits="userSpaceOnUse">
<stop stop-color="#E1E3F7" stop-opacity="0"/>
<stop offset="1" stop-color="#E1E3F7" stop-opacity="0.5"/>
</linearGradient>
<linearGradient id="paint5_linear_945_9392" x1="767.5" y1="24" x2="767.5" y2="232" gradientUnits="userSpaceOnUse">
<stop stop-color="#E1E3F7" stop-opacity="0"/>
<stop offset="1" stop-color="#E1E3F7" stop-opacity="0.5"/>
</linearGradient>
<linearGradient id="paint6_linear_945_9392" x1="925.5" y1="24" x2="925.5" y2="232" gradientUnits="userSpaceOnUse">
<stop stop-color="#E1E3F7" stop-opacity="0"/>
<stop offset="1" stop-color="#E1E3F7" stop-opacity="0.5"/>
</linearGradient>
<linearGradient id="paint7_linear_945_9392" x1="570" y1="70" x2="570" y2="232" gradientUnits="userSpaceOnUse">
<stop stop-color="#E1E3F7" stop-opacity="0.7"/>
<stop offset="1" stop-color="#E1E3F7" stop-opacity="0"/>
</linearGradient>
<clipPath id="clip0_945_9392">
<rect x="96" y="24" width="948" height="208" rx="8" fill="white"/>
</clipPath>
</defs>
</svg>
